<?xml version="1.0" standalone="no"?>
<!DOCTYPE svg PUBLIC "-//W3C//DTD SVG 1.1//EN" "http://www.w3.org/Graphics/SVG/1.1/DTD/svg11.dtd" >
<svg xmlns="http://www.w3.org/2000/svg">
<metadata></metadata>
<defs>
<font id="pf_beausans_prolight_italic" horiz-adv-x="1157" >
<font-face units-per-em="2048" ascent="1536" descent="-512" />
<missing-glyph horiz-adv-x="540" />
<glyph unicode="&#xfb01;" horiz-adv-x="1060" d="M94 -381l187 1335h-158q-16 0 -19.5 7.5t-1.5 17.5l7 41q2 23 28 29l160 26l16 111q23 147 117 234t285 87q41 0 118.5 -6t159.5 -33q10 -4 11.5 -11t-3.5 -17l-18 -76q-4 -14 -11 -16t-18 2q-33 6 -67.5 11t-68.5 8t-62.5 5t-46.5 2q-127 0 -181.5 -52t-66.5 -134 l-17 -115h557q16 0 20.5 -6t2.5 -20l-145 -1022q-2 -16 -8.5 -21.5t-22.5 -5.5h-90q-14 0 -20.5 5t-4.5 22l131 927h-438l-176 -1288q-2 -29 -27 -37l-102 -37q-33 -14 -27 27z" />
<glyph unicode="&#xfb02;" horiz-adv-x="1142" d="M94 -381l187 1335h-158q-16 0 -19.5 7.5t-1.5 17.5l7 41q2 23 28 29l160 26l16 119q23 147 118 233t286 86q39 0 111.5 -6t150.5 -28l80 22q16 0 21 -5t3 -21l-176 -1256q-10 -59 1.5 -79.5t56.5 -20.5q37 0 71 6q10 0 14.5 -3t6.5 -16l12 -71q4 -16 0 -22.5t-20 -10.5 q-41 -14 -83 -18t-71 -4q-96 0 -126 48t-15 146l168 1186q-61 12 -119 18t-92 6q-127 0 -182.5 -53t-67.5 -133l-17 -123h285q16 0 19.5 -7t3.5 -19l-11 -70q-4 -12 -9 -18.5t-21 -6.5h-285l-176 -1288q-2 -29 -27 -37l-102 -37q-33 -14 -27 27z" />
<glyph unicode="&#xfb03;" horiz-adv-x="1617" d="M94 -381l187 1335h-158q-20 0 -21 17v4l7 45q2 23 26 29l162 26l18 99q27 143 124.5 227t275.5 82q84 0 155.5 -11.5t143.5 -27.5q96 70 262 69q66 0 135.5 -10t144.5 -26q12 -4 12.5 -12.5t-1.5 -16.5l-23 -78q-6 -25 -28 -14q-63 12 -136 20t-112 8q-121 0 -178.5 -54 t-69.5 -132l-19 -123h560q16 0 18 -7t2 -19q-35 -256 -70.5 -512t-72.5 -512q-2 -16 -8.5 -20.5t-20.5 -4.5h-92q-16 0 -21.5 5t-3.5 20l129 929h-436l-164 -1187q-2 -27 -26 -35l-101 -35q-12 -4 -22 0t-6 22l174 1235h-416l-174 -1288q-6 -29 -29 -37l-102 -35 q-12 -4 -19.5 3.5t-5.5 21.5zM442 1075h414l18 119q6 41 17.5 76t28.5 63q-55 10 -109.5 15.5t-87.5 5.5q-70 0 -118 -13.5t-78.5 -39t-48 -62.5t-23.5 -82z" />
<glyph unicode="&#xfb04;" horiz-adv-x="1701" d="M94 -381l187 1335h-158q-25 0 -21 17l7 49q2 23 26 29l162 26q4 23 7 45.5t7 44.5q25 158 129.5 241t294.5 83q61 0 130 -10.5t149 -28.5q49 35 119.5 51.5t152.5 16.5q39 0 106.5 -5.5t145.5 -27.5l82 20q16 2 21.5 -4t3.5 -20l-179 -1258q-4 -23 -4 -40t5.5 -30.5 t18.5 -20.5t40 -7q16 0 32.5 1t38.5 3q10 2 14.5 -1t6.5 -15l12 -80q2 -20 -20 -27q-41 -10 -83 -14t-71 -4q-96 0 -126 51t-17 141l168 1186q-61 12 -119.5 17.5t-93.5 5.5q-121 0 -179.5 -53.5t-68.5 -131.5l-19 -129h287q16 0 20.5 -8t2.5 -18l-11 -70q-2 -25 -28 -25 h-287l-164 -1187q-2 -27 -26 -35l-101 -35q-12 -4 -22 0t-6 22l174 1235h-416l-174 -1288q-6 -29 -29 -37l-102 -35q-12 -4 -19.5 3.5t-5.5 21.5zM442 1075h414l18 125q6 41 15.5 75t32.5 64q-59 10 -116.5 15.5t-92.5 5.5q-129 -2 -186.5 -57.5t-69.5 -135.5z" />
<glyph horiz-adv-x="2048" />
<glyph horiz-adv-x="2048" />
<glyph unicode="&#xd;" horiz-adv-x="2048" />
<glyph unicode=" "  horiz-adv-x="540" />
<glyph unicode="&#x09;" horiz-adv-x="540" />
<glyph unicode="&#xa0;" horiz-adv-x="540" />
<glyph unicode="!" horiz-adv-x="522" d="M109 78q0 55 39 94t92 39q43 0 70.5 -26.5t27.5 -67.5q0 -55 -39 -96t-92 -41q-45 0 -71.5 27.5t-26.5 70.5zM215 395l109 1010q0 10 7 19.5t23 9.5h113q16 0 20.5 -9.5t1.5 -19.5l-174 -1006q-4 -16 -11 -22t-28 -6h-34q-31 0 -27 24z" />
<glyph unicode="&#x22;" horiz-adv-x="667" d="M229 944l27 467q0 10 6 19.5t25 9.5h127q16 0 21 -9.5t3 -19.5l-104 -463q-4 -16 -12.5 -22t-28.5 -6h-37q-27 0 -27 24zM496 944l26 467q0 10 6.5 19.5t22.5 9.5h127q18 0 23.5 -9.5t0.5 -19.5l-104 -463q-4 -16 -12 -22t-27 -6h-37q-31 0 -26 24z" />
<glyph unicode="#" d="M92 336l19 49q6 27 28 27h168l131 395h-176q-23 0 -16 24l16 50q8 25 31 24h180l90 269q4 20 27 20h57q29 0 21 -20l-90 -269h313l90 269q4 20 25 20h59q29 0 20 -20l-90 -269h179q25 0 18 -24l-18 -50q-8 -25 -29 -24h-180l-136 -395h189q23 0 16 -27l-16 -49 q-8 -23 -31 -23h-188l-99 -290q-4 -14 -7 -18.5t-17 -4.5h-60q-27 0 -22 23l98 290h-311l-96 -290q-4 -14 -8.5 -18.5t-18.5 -4.5h-59q-27 0 -23 23l98 290h-165q-23 0 -17 23zM414 412h309l133 395h-311z" />
<glyph unicode="$" horiz-adv-x="1138" d="M72 115l41 86q10 20 32 10q59 -31 132 -50.5t139 -29.5l80 563l2 2q-248 115 -248 330q0 147 88 246.5t256 116.5l24 174q2 16 10.5 21t24.5 5h21q16 0 21 -5t3 -21l-247 -1762q-4 -16 -10.5 -20t-22.5 -4h-21q-16 0 -23 4t-3 20l26 185q-92 10 -175 34.5t-148 59.5 q-18 10 -2 35zM397 1030q0 -57 32 -97t91 -75l53 379q-86 -12 -131 -66.5t-45 -140.5zM532 -199l248 1762q2 16 9.5 21t19.5 5h33q16 0 20 -5t2 -21l-24 -168q66 -6 124 -22.5t121 -45.5q16 -10 5 -31l-39 -92q-10 -18 -29 -10q-59 23 -107.5 36t-95.5 19l-69 -497h2 q63 -29 116.5 -63t93 -77t62.5 -97t23 -124q0 -174 -110 -276.5t-294 -124.5l-27 -189q-4 -16 -9 -20t-21 -4h-33q-12 0 -18.5 4t-2.5 20zM666 135q104 18 167.5 77.5t63.5 170.5q0 70 -43 120t-123 91z" />
<glyph unicode="%" horiz-adv-x="1761" d="M162 858q0 117 27.5 214t80 168t126 110t167.5 39q156 0 228.5 -90.5t72.5 -243.5q0 -117 -26.5 -212t-78.5 -164t-128 -105.5t-174 -36.5q-145 0 -220 84t-75 237zM291 866q0 -45 8 -86t28.5 -72.5t55.5 -50t88 -18.5q80 0 132 42t83 105.5t43 135t12 133.5q0 45 -8 86 t-29.5 72.5t-56.5 50t-88 18.5q-78 0 -129 -42t-82 -104.5t-44 -135t-13 -134.5zM371 -23l1013 1430q10 14 16.5 19.5t20.5 5.5h60q8 0 14 -5.5t-4 -19.5l-1016 -1430q-10 -14 -17 -19t-24 -5h-51q-27 0 -12 24zM977 309q0 117 27.5 214.5t80 168t126 109.5t167.5 39 q156 0 228.5 -90.5t72.5 -243.5q0 -117 -26.5 -212t-78.5 -164t-128 -105.5t-174 -36.5q-145 0 -220 84t-75 237zM1106 317q0 -45 8 -86t28.5 -72.5t55.5 -50t88 -18.5q80 0 132 42t83 105.5t43 135t12 133.5q0 45 -8 86t-29.5 72.5t-56.5 50t-88 18.5q-78 0 -129 -42 t-81.5 -104.5t-44 -135t-13.5 -134.5z" />
<glyph unicode="&#x26;" horiz-adv-x="1398" d="M123 256q0 84 29.5 162t82 147.5t125 129t156.5 108.5q-51 76 -79.5 156.5t-28.5 154.5q0 86 27.5 150.5t75.5 107.5t110.5 64.5t132.5 21.5q127 0 206.5 -70.5t79.5 -189.5q0 -78 -27.5 -140.5t-73.5 -114.5t-106.5 -95t-125.5 -82q29 -47 53 -86t46.5 -75t46.5 -71.5 t48 -76.5q37 51 77 103t84 98.5t95 82t113 56.5q23 8 46 13t46 7t22 -16l9 -78q2 -14 -5.5 -19.5t-17.5 -7.5q-80 -12 -137 -47t-102.5 -82t-82 -104t-73.5 -115q10 -18 46 -70.5t75 -107.5q45 -66 98 -141q6 -10 2 -19.5t-16 -9.5h-105q-20 0 -29.5 4t-19.5 19l-141 202 q-100 -117 -212 -184.5t-247 -67.5q-150 0 -226.5 75t-76.5 208zM264 285q0 -98 53.5 -139.5t141.5 -41.5q86 0 180 58.5t176 171.5q-59 92 -115.5 182t-113.5 184q-63 -37 -121.5 -81t-103 -95t-71 -110.5t-26.5 -128.5zM549 1122q0 -66 31.5 -133t66.5 -125q41 25 86 56.5 t84 71.5t63.5 87t24.5 103q0 57 -35.5 104t-115.5 47q-92 0 -148.5 -59.5t-56.5 -151.5z" />
<glyph unicode="'" horiz-adv-x="415" d="M236 944l26 467q2 10 8 19.5t23 9.5h127q16 0 22.5 -9.5t1.5 -19.5l-104 -463q-4 -16 -11 -22t-30 -6h-37q-27 0 -26 24z" />
<glyph unicode="(" horiz-adv-x="561" d="M92 522q0 152 39 288t105.5 258t156.5 226.5t193 194.5q14 12 28 2l43 -39q14 -10 -2 -22q-397 -406 -397 -912q0 -174 41 -326.5t143 -283.5q8 -12 -2 -21l-53 -41q-10 -8 -14 -6t-13 8q-121 127 -194.5 297t-73.5 377z" />
<glyph unicode=")" horiz-adv-x="567" d="M0 -115q-12 8 2 23q397 408 397 909q0 174 -43 325.5t-143 287.5q-6 14 2 20l57 41q12 8 25 -4q117 -131 192.5 -299t75.5 -373q0 -152 -39 -289t-105.5 -258t-155.5 -226t-191 -194q-18 -14 -31 -4z" />
<glyph unicode="*" horiz-adv-x="929" d="M236 1122l30 74q10 31 39 16l227 -102l21 276q-2 8 4 15.5t21 7.5h77q16 0 19.5 -7t1.5 -18l-60 -274l258 107q27 10 33 -13l15 -82q4 -14 -3.5 -20t-17.5 -8l-268 -72l143 -209q16 -23 -8 -37l-63 -45q-20 -14 -28.5 -12t-12.5 18l-107 234l-174 -242q-16 -27 -35 -8 l-57 51q-18 14 0 39l198 211l-241 68q-27 6 -12 32z" />
<glyph unicode="+" d="M143 659l15 91q2 14 7 21t21 7h379l58 404q2 16 8 21t20 5h92q14 0 20.5 -5t4.5 -21l-57 -404h374q16 0 19.5 -7t1.5 -21l-12 -91q-4 -16 -9.5 -22t-21.5 -6h-373l-57 -406q-4 -16 -9.5 -21t-21.5 -5h-92q-14 0 -20.5 5t-2.5 21l56 406h-377q-16 0 -20.5 6t-2.5 22z" />
<glyph unicode="," horiz-adv-x="442" d="M31 -225l92 420q4 14 12 24t25 10h137q18 0 24.5 -10t2.5 -22l-177 -418q-8 -16 -14 -23.5t-22 -7.5h-50q-37 0 -30 27z" />
<glyph unicode="-" horiz-adv-x="643" d="M80 522l18 119q2 14 7.5 20.5t21.5 6.5h457q23 0 20 -27l-18 -119q-2 -16 -6.5 -21t-20.5 -5h-457q-29 0 -22 26z" />
<glyph unicode="." horiz-adv-x="473" d="M78 82q0 59 42 100t95 41q47 0 75.5 -28.5t28.5 -73.5q0 -59 -40.5 -102.5t-96.5 -43.5q-47 0 -75.5 30t-28.5 77z" />
<glyph unicode="/" horiz-adv-x="837" d="M-51 -172l891 1741q8 27 34 26h97q8 0 14 -6t2 -20l-891 -1741q-10 -25 -39 -25h-88q-29 0 -20 25z" />
<glyph unicode="0" d="M96 506q0 180 39 342t116 284.5t190.5 194.5t260.5 72q231 0 339 -140.5t108 -390.5q0 -197 -41 -360.5t-121 -281t-195.5 -183.5t-263.5 -66q-219 0 -325.5 139.5t-106.5 389.5zM242 504q0 -80 14 -152.5t49 -127t92.5 -87.5t145.5 -33q131 0 220 77t142 191.5t76 247 t23 244.5q0 82 -14.5 156t-49.5 130t-93.5 89t-144.5 33q-88 0 -155.5 -36t-118.5 -96.5t-87 -138t-57.5 -163.5t-31.5 -172t-10 -162z" />
<glyph unicode="1" d="M203 29l10 80q2 29 31 28h237l152 1086l-236 -39q-20 -4 -25 2t-3 22l10 60q2 31 35 41l282 82q43 12 75 0.5t24 -56.5l-168 -1198h243q16 0 20.5 -6t0.5 -22l-10 -80q-2 -16 -7.5 -22.5t-21.5 -6.5h-627q-29 0 -22 29z" />
<glyph unicode="2" d="M80 90q-2 72 49 167t166 204q86 82 178 148.5t174 115.5q78 45 135.5 86t95 83t56 87t18.5 98q0 94 -74.5 141.5t-193.5 47.5q-78 0 -168 -30t-168 -83q-12 -8 -21.5 -9t-17.5 11l-45 70q-12 20 15 37q94 66 205.5 100.5t217.5 34.5q86 0 159 -19.5t126 -58.5t83 -98.5 t30 -137.5q0 -76 -28 -141t-78 -122.5t-122.5 -111t-162.5 -104.5q-63 -35 -135 -85t-138.5 -109.5t-119 -129t-76.5 -145.5h704q27 0 21 -24l-11 -84q-4 -16 -8 -22.5t-20 -6.5h-738q-61 0 -84.5 21.5t-23.5 68.5z" />
<glyph unicode="3" d="M74 102q-16 14 0 33l49 72q16 23 41 4q68 -49 158 -73.5t170 -24.5q172 0 268 88t100 223q2 55 -18.5 99t-57 76t-88 49.5t-112.5 17.5h-60q-23 0 -32 7t-5 34l9 53q4 27 13 36t30 9h45q66 0 124 20.5t102 55t69.5 80t25.5 96.5q0 61 -24.5 101t-63.5 63.5t-88 32 t-98 8.5q-86 0 -171 -27t-157 -70q-33 -16 -43 2l-37 74q-8 23 10 33q94 61 208 94t223 33q86 0 160.5 -20.5t129 -61.5t84 -103.5t23.5 -146.5q-4 -59 -26.5 -112.5t-59.5 -96.5t-87 -74.5t-108 -50.5l-2 -8q109 -27 174.5 -107.5t61.5 -207.5q-4 -92 -41 -172 t-102.5 -138.5t-158.5 -91.5t-208 -33q-55 0 -115.5 6.5t-118 20.5t-108.5 39t-88 59z" />
<glyph unicode="4" horiz-adv-x="1159" d="M47 393l4 23q4 29 14.5 50t36.5 50l717 811q25 31 52.5 54.5t60.5 23.5h47q47 0 62.5 -20.5t9.5 -67.5l-123 -871h151q29 0 23 -26l-10 -76q-2 -27 -31 -27h-152l-41 -290q-2 -16 -9 -21.5t-19 -5.5h-95q-16 0 -22 5t-4 22l41 288h-641q-29 0 -53.5 15.5t-18.5 62.5z M223 446h555l107 756l-6 2l-656 -749v-9z" />
<glyph unicode="5" d="M80 104q-16 14 0 33l53 70q8 10 16.5 13t24.5 -9q66 -51 154 -74.5t186 -23.5q84 0 157.5 24.5t128 70.5t85 111.5t30.5 149.5q0 66 -22.5 113t-61 76.5t-90 43t-106.5 13.5t-100.5 -6.5t-86 -17.5t-78.5 -26.5t-81 -33.5q-23 -10 -39.5 -9t-34.5 9l-25 12 q-18 8 -28 24.5t0 49.5l129 555q12 59 48 82.5t73 23.5h657q16 0 20.5 -6t0.5 -22l-11 -80q-4 -16 -9 -22.5t-21 -6.5h-619l-113 -459q100 43 186.5 56.5t158.5 13.5q88 0 162.5 -23.5t129 -70.5t84 -116t29.5 -157q0 -117 -43 -212t-118 -161.5t-178 -102.5t-222 -36 q-125 0 -236.5 30t-189.5 101z" />
<glyph unicode="6" d="M102 489q0 180 44 346t134.5 292t230 202t327.5 76q47 0 107.5 -8t101.5 -25q12 -4 14 -10t-2 -23l-25 -75q-4 -23 -37 -15q-29 8 -76 14.5t-90 6.5q-104 0 -192 -35t-156.5 -99.5t-117 -156.5t-72.5 -207q102 37 206.5 53.5t184.5 16.5q90 0 167 -22.5t132 -66.5 t86 -113t31 -161q0 -133 -47 -228t-123 -155.5t-169 -89.5t-188 -29q-240 0 -355.5 133.5t-115.5 378.5zM248 467q0 -166 83 -262t242 -96q76 0 144.5 22.5t121 66.5t82 108.5t29.5 148.5q0 111 -70.5 180.5t-215.5 69.5q-96 0 -188.5 -16.5t-211.5 -51.5q-10 -51 -13 -94 t-3 -76z" />
<glyph unicode="7" d="M188.5 10q-4.5 10 6.5 27l782 1206h-741q-27 0 -21 29l10 78q4 16 9.5 22t21.5 6h831q29 0 47.5 -12t14.5 -47l-6 -43q-4 -27 -14.5 -49.5t-22.5 -40.5l-754 -1159q-10 -16 -17 -21.5t-26 -5.5h-102q-14 0 -18.5 10z" />
<glyph unicode="8" d="M90 317q0 66 21.5 131.5t63.5 122t101.5 99.5t133.5 65l2 6q-53 18 -87 49t-54.5 67t-29 74t-8.5 70q0 96 41 171t109 126.5t156 78t180 26.5q88 0 158.5 -24.5t120 -67.5t76 -102.5t26.5 -129.5q0 -41 -12.5 -89t-41 -94t-78.5 -87t-126 -68l-2 -6q59 -18 101 -50 t67.5 -74t38 -90t12.5 -99q0 -68 -27.5 -145.5t-90 -144t-164 -111t-247.5 -44.5q-115 0 -198.5 27t-137 73t-79 107.5t-25.5 132.5zM244 342q0 -47 15 -90t51 -75t92.5 -51.5t138.5 -19.5q104 0 174.5 32t113.5 80t61.5 105.5t18.5 106.5q0 59 -24.5 103.5t-64.5 74 t-93.5 44t-110.5 14.5q-61 0 -127.5 -20.5t-121 -60.5t-89 -101.5t-34.5 -141.5zM381 989q0 -45 20.5 -82t54 -62.5t80 -38.5t95.5 -13q59 0 116.5 18t102.5 54t72.5 85t27.5 111q0 92 -66.5 150.5t-187.5 58.5q-72 0 -129 -22.5t-99 -60.5t-64.5 -89t-22.5 -109z" />
<glyph unicode="9" d="M139 905q0 133 47 228.5t123 156t170 89t189 28.5q238 0 353.5 -133t115.5 -379q0 -180 -44 -346t-135.5 -292t-230 -201.5t-326.5 -75.5q-45 0 -106.5 8t-101.5 24q-12 4 -14.5 10.5t1.5 22.5l27 76q4 23 37 14q29 -8 76 -14t88 -6q104 0 192 34.5t156.5 99t117 157 t72.5 206.5q-100 -37 -204.5 -53t-186.5 -16q-90 0 -166 22.5t-131 66.5t-87 112.5t-32 160.5zM289 930q0 -111 70.5 -180.5t215.5 -69.5q96 0 189.5 16.5t210.5 51.5q10 51 12 94t2 76q0 166 -83 262t-240 96q-78 0 -145.5 -22.5t-120 -66.5t-82 -108.5t-29.5 -148.5z" />
<glyph unicode=":" horiz-adv-x="518" d="M102 102q8 51 47.5 87t90.5 36q53 0 82.5 -33.5t21.5 -87.5q-8 -53 -47 -88.5t-90 -35.5q-53 0 -83 34.5t-22 87.5zM217 907q6 51 45 86t92 35t82 -33.5t21 -87.5q-6 -53 -46 -89t-92 -36q-53 0 -82.5 36t-19.5 89z" />
<glyph unicode=";" horiz-adv-x="505" d="M55 -225l92 420q4 14 12.5 24t24.5 10h138q18 0 24 -10t2 -22l-176 -418q-8 -16 -14 -23.5t-25 -7.5h-49q-37 0 -29 27zM229 907q6 51 46.5 86t91.5 35t79.5 -33.5t22.5 -87.5q-8 -53 -47 -89t-90 -36t-82 36t-21 89z" />
<glyph unicode="&#x3c;" d="M143 672q0 4 4.5 27.5t4.5 27.5q4 23 14 33t37 22l942 432q29 10 24 -20l-12 -92q-2 -16 -7 -25.5t-22 -15.5l-792 -363l680 -346q18 -10 23 -18t1 -27l-12 -88q-2 -10 -9 -15t-18 -1l-821 426q-16 10 -26.5 18t-10.5 25z" />
<glyph unicode="=" d="M154 471l10 84q4 14 8 20.5t21 6.5h831q16 0 19.5 -6.5t0.5 -20.5l-10 -84q-4 -16 -8 -22.5t-20 -6.5h-834q-25 0 -18 29zM204 811q-3 6 1 23l10 84q2 27 29 26h831q16 0 19.5 -6t1.5 -20l-13 -84q-2 -16 -7 -22.5t-21 -6.5h-832q-16 0 -19 6z" />
<glyph unicode="&#x3e;" d="M84 219l14 100q4 20 10.5 28.5t26.5 19.5l778 346l-688 360q-16 8 -19 16.5t-1 24.5l14 80q4 33 29 20l823 -432q20 -12 28.5 -22t4.5 -33q0 -4 -4 -27.5t-4 -27.5q-4 -16 -16.5 -24.5t-32.5 -18.5l-938 -426q-29 -10 -25 16z" />
<glyph unicode="?" horiz-adv-x="1028" d="M219 1274q-8 20 14 39q98 72 215 104.5t211 32.5q86 0 157 -19.5t123 -57.5t81 -96t29 -138q0 -70 -21.5 -126.5t-58.5 -104.5t-84 -89t-97 -78q-45 -35 -89 -68.5t-78.5 -69.5t-60 -77t-34.5 -88l-12 -78q-4 -16 -8 -19t-14 -3h-105q-23 0 -20 22l12 80q8 70 39 124 t74 99.5t94 83t100 74.5q96 70 153.5 143.5t57.5 153.5q0 84 -57.5 140.5t-194.5 56.5q-33 0 -75 -7.5t-88 -21.5t-92 -34.5t-85 -47.5q-27 -16 -39 0zM285 84q2 55 42 95t97 40q14 0 30.5 -5t32 -16.5t24.5 -31t9 -47.5q0 -57 -39 -98t-94 -41q-47 0 -75.5 28.5t-26.5 75.5 z" />
<glyph unicode="@" horiz-adv-x="1890" d="M184 563q0 195 69 363t190.5 292.5t287.5 195.5t363 71q145 0 276 -37t229.5 -114t155.5 -194.5t57 -279.5q0 -147 -34.5 -259t-94 -187.5t-138.5 -113.5t-169 -38t-146 32t-75 73q-145 -88 -291 -88q-141 0 -219 86t-78 237q0 117 30 218.5t87 176t142 116.5t198 42 q66 0 137.5 -10t136.5 -33q33 -10 38 -27.5t1 -44.5q-10 -59 -23.5 -135t-25.5 -152.5t-21.5 -145t-11.5 -111.5q-4 -45 25 -85t113 -40q74 0 130 36.5t94 102t58.5 156t20.5 196.5q0 129 -46 225.5t-127 160t-191.5 95t-239.5 31.5q-180 0 -325.5 -64.5t-249 -175 t-160 -257t-56.5 -312.5q0 -129 37 -236.5t110.5 -184t184 -118.5t258.5 -42q45 0 104.5 5t118.5 19q20 4 28.5 5t12.5 -21l12 -51q4 -16 -4 -21.5t-24 -11.5q-57 -18 -126 -25.5t-122 -7.5q-172 0 -304 50t-221.5 140.5t-135.5 217.5t-46 280zM690 602q0 -113 57.5 -162 t143.5 -49q41 0 107.5 15.5t134.5 60.5q8 80 17 147.5t18.5 132t19.5 130t22 137.5q-49 14 -101 20t-89 6q-150 0 -240 -111.5t-90 -326.5z" />
<glyph unicode="A" horiz-adv-x="1202" d="M-20 10q-1 4 -1 9q0 7 3 14l647 1333q23 43 40 56.5t58 15.5h49q47 0 59.5 -15.5t22.5 -56.5l266 -1333q2 -4 2 -9q0 -6 -3 -12q-5 -12 -21 -12h-103q-16 0 -25 3t-13 24l-58 315h-592l-149 -315q-8 -14 -15.5 -20.5t-23.5 -6.5h-123q-16 0 -20 10zM373 483h504l-82 463 l-56 311h-8l-141 -303z" />
<glyph unicode="B" horiz-adv-x="1257" d="M111 94l174 1245q8 47 31.5 72t76.5 25l453 2q76 0 140.5 -18.5t112.5 -56.5t75.5 -97.5t27.5 -141.5q0 -45 -12 -94t-41 -95t-75 -84t-111 -60l-2 -13q117 -41 161.5 -125t44.5 -184q0 -111 -37.5 -198t-106.5 -147.5t-162 -92t-204 -31.5h-464q-51 0 -70 22 q-14 16 -14 47q0 11 2 25zM272 145h390q104 0 171.5 35t106.5 85t53.5 107.5t14.5 100.5q0 109 -63.5 173.5t-205.5 64.5h-387zM371 846h377q35 0 84 11t94 41t76.5 80t31.5 130q0 82 -55 133t-156 51h-389z" />
<glyph unicode="C" horiz-adv-x="1167" d="M141 549q0 215 51.5 383t141.5 283.5t216 177t273 61.5q37 0 83 -3t95.5 -12t99.5 -26.5t97 -44.5q11 -4 11 -14q0 -8 -9 -27l-33 -74q-12 -25 -34 -12q-74 41 -156 54.5t-148 13.5q-147 0 -247.5 -65.5t-162 -172t-89 -243t-27.5 -279.5q0 -96 18.5 -175t62.5 -135.5 t115.5 -87t178.5 -30.5q88 0 179 23.5t169 58.5q20 10 26.5 4t12.5 -17l35 -71q10 -20 4 -29.5t-19 -15.5q-115 -59 -233.5 -78t-210.5 -19q-248 0 -374 139.5t-126 432.5z" />
<glyph unicode="D" horiz-adv-x="1325" d="M106 94l175 1243q8 47 30.5 72t75.5 25l350 2q274 0 403.5 -153t129.5 -421q0 -188 -46 -347t-135.5 -272.5t-223.5 -178t-308 -64.5h-371q-48 0 -68 22q-14 15 -14 45q0 12 2 27zM266 143h295q150 0 255.5 58.5t171 157t96 226.5t30.5 267q0 94 -18.5 175t-64.5 140.5 t-125 92t-197 32.5h-281z" />
<glyph unicode="E" horiz-adv-x="1124" d="M141 206q-2 23 -2 48q0 40 6 84l105 758q10 70 31.5 132t61.5 108t102.5 73t156.5 27h541q19 0 25 -10q4 -6 4 -15q0 -5 -1 -12l-12 -72q-2 -20 -8 -27.5t-27 -7.5h-520q-92 0 -138 -43t-58 -131l-41 -287h645q18 0 23 -7t3 -27l-10 -68q-2 -16 -9 -25.5t-26 -9.5h-645 l-53 -377q-2 -19 -2 -37q1 -53 23 -88q30 -47 126 -47h564q20 0 24 -8t0 -28l-8 -72q-2 -18 -9 -27.5t-28 -9.5h-563q-96 0 -155.5 26.5t-89.5 72t-36 107.5z" />
<glyph unicode="F" horiz-adv-x="1103" d="M102 33l148 1063q10 70 30.5 132t60.5 108t104.5 73t162.5 27h543q19 0 25 -10q4 -7 5 -18q0 -4 -1 -9l-13 -72q-2 -20 -8 -27.5t-29 -7.5h-526q-92 0 -138 -43t-58 -131l-43 -305h636q20 0 25.5 -7t1.5 -28l-8 -67q-4 -18 -11.5 -27.5t-25.5 -9.5h-639l-90 -641 q-2 -20 -10 -26.5t-29 -6.5h-82q-15 0 -25 6q-7 4 -7 16q0 5 1 11z" />
<glyph unicode="G" horiz-adv-x="1280" d="M139 549q0 215 53.5 383t147.5 283.5t222 177t276 61.5q37 0 83 -3t95 -12t99 -26.5t97 -44.5q12 -5 12 -14t-10 -27l-32 -74q-12 -25 -35 -12q-74 41 -156 54.5t-147 13.5q-147 0 -251 -65.5t-169.5 -172t-95 -243t-29.5 -279.5q0 -96 18.5 -175t61.5 -135.5t114.5 -87 t180.5 -30.5q23 0 56.5 2t74.5 8t86 18.5t88 30.5l76 529q2 20 12 26t27 6h82q20 0 27 -6t3 -26l-78 -574q-6 -41 -41 -63q-57 -31 -119.5 -50.5t-121 -28.5t-108.5 -12.5t-83 -3.5q-256 0 -386 139.5t-130 432.5z" />
<glyph unicode="H" horiz-adv-x="1351" d="M102 33l191 1368q4 20 14 26.5t27 6.5h84q20 0 27.5 -6.5t3.5 -26.5l-80 -574h743l80 574q4 20 12 26.5t27 6.5h86q21 0 27 -6q5 -5 4 -18v-9l-195 -1368q-2 -20 -9 -26.5t-28 -6.5h-86q-18 0 -26.5 6t-4.5 27l93 655h-744l-92 -655q-4 -20 -11 -26.5t-28 -6.5h-84 q-15 0 -25 6q-7 4 -7 16q0 5 1 11z" />
<glyph unicode="I" horiz-adv-x="514" d="M131 33l193 1368q4 20 13 26.5t28 6.5h86q18 0 24 -6q4 -5 5 -18q0 -4 -1 -9l-194 -1368q-2 -20 -9.5 -26.5t-25.5 -6.5h-86q-18 0 -28 6q-7 4 -6 16q0 5 1 11z" />
<glyph unicode="J" horiz-adv-x="1120" d="M14 112q0 8 9 23l47 78q10 20 36 4q68 -47 152 -71.5t180 -24.5q100 0 170 29.5t114 85t69.5 136.5t39.5 183l119 846q4 20 13.5 26.5t25.5 6.5h82q23 0 29 -6q4 -4 4 -13q0 -6 -2 -14q-18 -123 -34.5 -244t-33 -234.5t-30 -215t-25.5 -183.5q-18 -127 -52 -228 t-94.5 -172t-153.5 -109t-233 -38q-43 0 -96 5.5t-108.5 18.5t-110.5 35.5t-104 57.5q-13 8 -13 18z" />
<glyph unicode="K" horiz-adv-x="1234" d="M102 33l191 1368q4 20 14 26.5t27 6.5h82q18 0 25.5 -4.5t4.5 -26.5l-108 -766l8 -2l225 252l486 524q23 23 59 23h123q13 0 17 -8q1 -2 1 -3q0 -6 -8 -14l-444 -479l360 -895q14 -35 -20 -35h-84q-29 0 -41 5t-23 28l-303 778l-391 -426l-51 -352q-2 -20 -9 -26.5 t-28 -6.5h-82q-15 0 -25 6q-7 4 -7 16q0 5 1 11z" />
<glyph unicode="L" horiz-adv-x="1081" d="M142 198q-4 27 -4 57q0 35 5 73l150 1075q4 23 14 29t27 6h82q20 0 27.5 -6.5t2.5 -28.5l-151 -1073q-3 -23 -3 -43q0 -61 28 -95q36 -46 131 -47h553q16 0 20 -7q3 -5 3 -12q0 -4 -1 -9l-12 -86q-4 -16 -8.5 -23.5t-20.5 -7.5h-565q-92 0 -150.5 25.5t-89 69 t-38.5 103.5z" />
<glyph unicode="M" horiz-adv-x="1591" d="M100 27l187 1319q6 41 25.5 65.5t68.5 24.5h41q39 0 56.5 -13.5t27.5 -60.5q2 -10 16.5 -62.5t33.5 -127t42 -161.5t43.5 -167t36.5 -141.5t22 -84.5q6 -18 17.5 -61t23 -90t21.5 -90t14 -62h8q10 18 32 59.5t46.5 88.5t47 88t32.5 59l57.5 107.5t74.5 137.5t82 150.5 t79 146.5t67.5 124t47.5 86q23 47 45 60.5t59 13.5h53q51 0 65 -25q9 -17 9 -42q0 -11 -2 -23l-186 -1319q-2 -16 -9.5 -21.5t-19.5 -5.5h-94q-16 0 -22.5 5t-4.5 22l160 1132h-8l-135 -252q-20 -35 -49 -89t-64 -116.5t-71 -130t-70.5 -130t-64.5 -116t-48 -87.5 q-20 -41 -39.5 -56.5t-58.5 -15.5h-56q-41 0 -56 15.5t-24 56.5q-14 53 -38.5 145t-52 192.5t-53.5 192.5t-40 145l-59 230h-10l-158 -1116q-2 -16 -8.5 -21.5t-22.5 -5.5h-92q-15 0 -21 5q-5 4 -4 15v7z" />
<glyph unicode="N" horiz-adv-x="1349" d="M102 33l183 1313q6 45 27.5 67.5t70.5 22.5h43q39 0 53.5 -16.5t32.5 -57.5l383 -866l125 -293h6l168 1200q4 20 13.5 26.5t29.5 6.5h80q17 0 25 -6q5 -4 5 -15q0 -5 -1 -12l-185 -1313q-6 -43 -25.5 -66.5t-68.5 -23.5h-45q-39 0 -54.5 17.5t-31.5 58.5l-408 915 l-102 240h-6l-168 -1198q-4 -20 -11.5 -26.5t-27.5 -6.5h-80q-15 0 -25 6q-7 4 -7 16q0 5 1 11z" />
<glyph unicode="O" horiz-adv-x="1384" d="M143 514q0 223 54.5 398t147.5 296t219.5 184.5t271.5 63.5q248 0 374.5 -144.5t126.5 -408.5q0 -190 -45 -358t-133 -294t-219 -200t-301 -74q-248 0 -372 142.5t-124 394.5zM297 532q0 -92 18.5 -167.5t60.5 -130t110.5 -85t166.5 -30.5q137 0 238.5 65.5t167 175 t98.5 250t33 289.5q0 88 -18.5 164t-61.5 132t-113 88t-170 32q-139 0 -238.5 -67.5t-165 -177t-96 -250t-30.5 -288.5z" />
<glyph unicode="P" horiz-adv-x="1183" d="M102 33l185 1308q6 47 29.5 72t76.5 25h443q176 0 274 -103.5t98 -275.5q0 -74 -21.5 -156t-77.5 -151.5t-151.5 -115.5t-242.5 -46h-383l-80 -557q-2 -20 -9 -26.5t-28 -6.5h-82q-15 0 -25 6q-7 4 -7 16q0 5 1 11zM352 731h359q160 0 249 84t89 236q0 43 -12.5 86 t-42 76.5t-80 55t-126.5 21.5h-356z" />
<glyph unicode="Q" horiz-adv-x="1382" d="M143 514q0 223 53.5 398t147.5 296t220.5 184.5t271.5 63.5q248 0 374.5 -144.5t126.5 -408.5q0 -190 -45 -358t-133 -294t-219 -200t-301 -74q-248 0 -372 142.5t-124 394.5zM297 532q0 -92 18.5 -167.5t60.5 -131t109.5 -85t165.5 -29.5q137 0 239.5 65.5t168 175 t98.5 250t33 289.5q0 88 -19.5 164t-62.5 131t-113 87t-170 32q-137 0 -237.5 -66.5t-165 -176t-95 -250t-30.5 -288.5zM551 -236l12 80q2 27 29 27h182q90 0 163 -11.5t129 -29.5t98 -39.5t69 -40.5q14 -12 14 -17.5t-6 -15.5l-47 -77q-8 -12 -17 -12h-1q-9 1 -25 12 q-72 41 -174.5 68.5t-226.5 27.5h-179q-20 0 -20 22v6z" />
<glyph unicode="R" horiz-adv-x="1226" d="M102 33l185 1308q6 47 29.5 72t76.5 25h449q86 0 152.5 -26t112.5 -71t70.5 -108.5t24.5 -136.5q0 -160 -81 -264.5t-203 -145.5v-8q78 -27 106.5 -81t38.5 -132l57 -432q2 -10 -2 -21.5t-22 -11.5h-111q-8 0 -17.5 4t-13.5 21l-49 395q-8 63 -29.5 103t-54.5 63.5 t-74.5 33t-91.5 9.5h-313l-84 -596q-2 -20 -10 -26.5t-29 -6.5h-86q-15 0 -25 6q-7 4 -7 16q0 5 1 11zM365 768h354q80 0 140.5 23.5t101 65.5t62 99.5t21.5 122.5q0 86 -55 148.5t-182 62.5h-369z" />
<glyph unicode="S" horiz-adv-x="1116" d="M59 119l45 90q10 16 31 10q92 -51 200.5 -74.5t201.5 -23.5q84 0 153.5 15.5t118.5 47t75.5 82.5t26.5 123q0 53 -19.5 93t-58 73t-96 62.5t-133.5 62.5q-102 45 -178 86t-125 87t-73.5 100.5t-24.5 123.5q0 182 130 281.5t351 99.5q92 0 200.5 -19.5t196.5 -64.5 q9 -4 13 -10q2 -3 2 -8t-2 -13l-35 -96q-8 -10 -13.5 -12t-13.5 2q-96 43 -189 60.5t-171 17.5q-133 0 -217 -60.5t-84 -173.5q0 -47 22.5 -82.5t65.5 -67.5t104.5 -60.5t136.5 -61.5q82 -33 152 -71t121 -86t79.5 -109.5t28.5 -143.5q0 -109 -41 -188.5t-111.5 -131.5 t-167.5 -77t-210 -25q-53 0 -115.5 4.5t-127 16.5t-128 32.5t-117.5 51.5q-10 6 -10 17q0 8 6 20z" />
<glyph unicode="T" horiz-adv-x="1069" d="M160 1321l12 84q4 16 9 22.5t22 6.5h964q22 0 22 -19q0 -4 -1 -10l-12 -84q-2 -16 -7.5 -21.5t-21.5 -5.5h-412l-178 -1261q-2 -20 -9 -26.5t-26 -6.5h-88q-18 0 -27.5 6t-7.5 27l179 1261h-396q-16 0 -20 6q-3 4 -3 12q0 4 1 9z" />
<glyph unicode="U" horiz-adv-x="1343" d="M172 306q-4 41 -4 88q0 95 16 218l109 789q2 20 12 26.5t27 6.5h88q20 0 26.5 -6.5t4.5 -26.5l-111 -776q-17 -126 -17 -219v-10q1 -96 39.5 -158t121.5 -91.5t231 -29.5q35 0 117.5 5t177.5 23l178 1256q2 20 11 26.5t26 6.5h90q20 0 24 -6q2 -3 2 -10t-2 -17 l-174 -1241q-10 -63 -42.5 -103.5t-108.5 -54.5t-169 -20.5t-157 -6.5q-170 0 -278.5 31t-167 104.5t-70.5 195.5z" />
<glyph unicode="V" horiz-adv-x="1224" d="M178 1413q-1 3 -1 6q0 17 20 17h114q25 0 27 -21q2 -8 11 -62.5t24.5 -136t34 -181t38 -199t37 -188.5t29.5 -150q4 -14 13.5 -61.5t19.5 -101.5t19 -103.5t14 -67.5h10l149 330l432 921q8 16 15.5 18.5t23.5 2.5h119q12 0 12 -10q0 -5 -4 -13l-645 -1345 q-18 -37 -34.5 -51.5t-51.5 -16.5h-72q-37 0 -53 13.5t-26 54.5z" />
<glyph unicode="W" horiz-adv-x="1642" d="M178 1413q-1 4 -1 7q0 16 18 16h114q25 0 27 -21l43 -889l14 -338h10l125 340l312 832q10 31 30.5 53.5t67.5 22.5h72q37 0 49 -20.5t16 -55.5l76 -825l27 -347h12l113 349l292 878q8 20 33 21h119q12 0 12 -11q0 -5 -2 -12l-469 -1345q-14 -41 -37.5 -54.5t-58.5 -13.5 h-70q-61 0 -67 78l-86 880l-19 299h-6l-110 -303l-332 -876q-14 -37 -33.5 -57.5t-54.5 -20.5h-70q-35 0 -55.5 13.5t-24.5 54.5z" />
<glyph unicode="X" horiz-adv-x="1087" d="M-28 7q-1 2 -1 4q0 6 4 14l533 718l-303 670q-4 6 0 14.5t16 8.5h107q20 0 28.5 -4.5t14.5 -20.5l237 -537l387 537q10 14 20.5 19.5t31.5 5.5h116q11 0 15 -8l2 -6q0 -6 -6 -13l-490 -661l332 -723q4 -8 0 -16.5t-17 -8.5h-108q-23 0 -31 6t-14 19l-258 593l-428 -593 q-10 -14 -19.5 -19.5t-29.5 -5.5h-125q-12 0 -14 7z" />
<glyph unicode="Y" horiz-adv-x="1085" d="M170 1415q-2 3 -2 6t3 7q5 8 15 8h115q14 0 19.5 -4.5t11.5 -18.5l143 -379l111 -307h8l201 317l243 369q16 23 39 23h123q11 0 11 -12q0 -6 -3 -9l-557 -833l-78 -555q-2 -16 -7 -21.5t-21 -5.5h-96q-14 0 -20.5 5t-4.5 22l78 553z" />
<glyph unicode="Z" horiz-adv-x="1183" d="M10 70l6 36q4 33 16.5 52.5t30.5 38.5q43 49 123 136t177.5 191.5t203 219t202.5 219t176 191.5t124 136v6h-754q-16 0 -20 7.5t-2 21.5l12 82q2 29 29 29h831q41 0 63 -16q17 -12 16 -39q0 -8 -1 -17l-4 -41q-4 -33 -18.5 -55.5t-36.5 -44.5l-983 -1076v-10h852 q16 0 19 -6t1 -22l-10 -80q-4 -16 -8 -22.5t-21 -6.5h-954q-38 0 -58 18q-14 12 -14 33q0 9 2 19z" />
<glyph unicode="[" horiz-adv-x="598" d="M63 -135l222 1581q4 16 9 22.5t21 6.5h361q16 0 19 -6.5t1 -22.5l-8 -64q-4 -14 -9 -20t-22 -6h-239l-197 -1401h240q16 0 20 -5t2 -22l-10 -63q-2 -29 -29 -29h-360q-16 0 -19.5 6t-1.5 23z" />
<glyph unicode="\" horiz-adv-x="837" d="M195 1569q-4 14 5 20t17 6h94q23 0 31 -26l399 -1741q4 -14 -4 -19.5t-18 -5.5h-94q-25 0 -31 25z" />
<glyph unicode="]" horiz-adv-x="598" d="M27 -135l12 65q2 14 7 20.5t22 6.5h237l197 1401h-238q-16 0 -20 5t-2 21l8 64q4 14 9 21.5t22 7.5h360q16 0 19.5 -7.5t-1.5 -21.5l-221 -1583q-2 -14 -7 -21.5t-21 -7.5h-359q-18 0 -22 7t-2 22z" />
<glyph unicode="^" horiz-adv-x="1028" d="M123 783.5q-2 9.5 8 21.5l451 635q16 20 29.5 33.5t33.5 13.5h31q25 0 33 -9.5t18 -33.5l277 -641q4 -12 -2.5 -19.5t-18.5 -7.5h-98q-29 0 -37 25l-209 504h-4q-25 -35 -72 -105t-99 -144.5t-99.5 -144t-71.5 -104.5q-12 -18 -20.5 -25.5t-28.5 -7.5h-103q-16 0 -18 9.5 z" />
<glyph unicode="_" horiz-adv-x="993" d="M-106.5 -245q-4.5 5 0.5 22l4 43q4 14 10 20t22 6h992q16 0 19 -6t1 -20l-6 -43q-4 -16 -9 -21.5t-22 -5.5h-991q-16 0 -20.5 5z" />
<glyph unicode="`" horiz-adv-x="944" d="M416 1509q-16 16 8 29l113 53q14 6 20 3t12 -13l183 -305q12 -20 -7 -31l-43 -28q-18 -12 -38 10z" />
<glyph unicode="a" horiz-adv-x="1099" d="M102 375q0 154 33 286t101.5 229t175.5 152.5t254 55.5q72 0 165 -9.5t193 -37.5q29 -11 33 -25q2 -7 2 -16.5t-2 -20.5q-35 -236 -65.5 -457t-59.5 -450q-2 -31 -35 -43q-90 -35 -196.5 -48.5t-194.5 -13.5q-109 0 -185.5 30t-125 83t-71 126t-22.5 159zM250 389 q0 -141 72.5 -212t226.5 -71q47 0 115.5 8.5t128.5 32.5q27 205 53 396.5t57 390.5q-59 20 -126.5 27.5t-117.5 7.5q-80 0 -153.5 -31t-131 -100.5t-91 -179t-33.5 -269.5z" />
<glyph unicode="b" horiz-adv-x="1095" d="M90 80l193 1390q4 16 11 21.5t21 5.5h91q14 0 20 -5t4 -22l-61 -421q66 23 148.5 36t141.5 13q102 0 174 -32t117 -90t65.5 -139t20.5 -180q0 -147 -35.5 -272t-106.5 -215t-175.5 -141.5t-241.5 -51.5q-90 0 -187 14.5t-184 53.5q-18 6 -18 23q0 6 2 12zM242 143 q66 -23 133 -31t119 -8q76 0 147.5 33t125.5 99.5t87 168t33 240.5q0 322 -262 322q-41 0 -117 -10.5t-158 -38.5z" />
<glyph unicode="c" horiz-adv-x="940" d="M104 401q0 158 36 286t102.5 219t161 141.5t210.5 50.5q78 0 164 -17.5t148 -54.5q11 -9 11 -17q0 -7 -5 -20l-33 -69q-6 -12 -13 -15.5t-24 4.5q-47 23 -112.5 39.5t-131.5 16.5q-98 0 -167.5 -49.5t-114.5 -128t-65.5 -178t-20.5 -199.5q0 -66 14.5 -121.5t48 -95 t86 -62t129.5 -22.5q72 0 141.5 17t118.5 40q16 8 21.5 4t9.5 -14l33 -70q12 -23 -12 -37q-80 -43 -167 -57.5t-163 -14.5q-195 0 -300.5 106.5t-105.5 317.5z" />
<glyph unicode="d" horiz-adv-x="1095" d="M104 410q0 141 35 266t105.5 219t175 148.5t246.5 54.5q51 0 117.5 -7.5t131.5 -29.5l60 409q2 16 8 21.5t21 5.5h94q12 0 19 -5q4 -3 4 -11q0 -5 -1 -11l-194 -1388q-4 -12 -8.5 -20.5t-18.5 -12.5q-104 -45 -212.5 -58.5t-197.5 -13.5q-104 0 -176.5 32t-119 88.5 t-68 136t-21.5 176.5zM256 414q0 -168 72.5 -238t201.5 -70q27 0 60 3.5t67.5 8.5t68.5 13t62 19l109 776q-78 29 -136.5 36t-103.5 7q-78 0 -150.5 -31t-127.5 -98.5t-89 -173t-34 -252.5z" />
<glyph unicode="e" horiz-adv-x="1001" d="M102 391q0 180 41 312.5t112 220.5t168 131t212 43q98 0 164.5 -27t105.5 -68.5t55.5 -91t16.5 -94.5q0 -180 -126 -261t-390 -81q-47 0 -101.5 3t-109.5 11q-6 -49 -6 -92v-16q0 -129 62 -199q66 -74 206 -73q66 0 128 16t112 41q20 8 30 -8l35 -72q10 -20 -14 -35 q-76 -41 -159 -57.5t-161 -16.5q-190 0 -285.5 98.5t-95.5 315.5zM266 604q47 -6 98.5 -9t92.5 -3q211 0 298 50t87 161q0 33 -11.5 62.5t-37 53t-66.5 38t-102 14.5q-147 0 -239.5 -95.5t-119.5 -271.5z" />
<glyph unicode="f" horiz-adv-x="661" d="M94 -381l187 1335h-158q-25 0 -21 23l7 41q2 25 28 31q10 2 33 6t47.5 8t47 8t32.5 4l20 137q10 70 31 125.5t57.5 94t91 59t132.5 20.5q29 0 78 -4t102 -20q16 -4 17 -11v-6q0 -5 -1 -12l-16 -78q-4 -12 -11 -14t-18 0q-41 8 -76.5 10t-64.5 2q-92 0 -128 -42t-46 -107 l-23 -154h269q16 0 19 -7t1 -19l-10 -70q-2 -10 -7 -17.5t-22 -7.5h-266q-8 -55 -22.5 -157.5t-31 -227.5t-35 -260t-34.5 -260t-30.5 -226.5t-22.5 -156.5q-2 -29 -27 -37l-104 -37q-7 -3 -13 -3q-13 0 -13 19q0 5 1 11z" />
<glyph unicode="g" horiz-adv-x="1095" d="M102 410q0 143 35 268t105.5 218t176.5 146.5t245 53.5q92 0 189 -14.5t183 -51.5q17 -7 17 -28v-7l-140 -981q-12 -84 -30.5 -165.5t-64.5 -147.5t-130 -106.5t-223 -40.5q-41 0 -86 5t-88 13t-81 18.5t-65 20.5q-23 10 -25.5 15t3.5 22l29 78q6 18 15 18t23 -4 q55 -23 132 -36t143 -13q82 0 135 18.5t86 58t51.5 103t30.5 156.5q-66 -23 -147.5 -36.5t-143.5 -13.5q-100 0 -172 32t-117 88.5t-65.5 136t-20.5 176.5zM252 420q0 -152 65.5 -233t194.5 -81q41 0 118 10.5t158 39.5q29 195 55.5 386t53.5 386q-61 23 -129 32t-119 9 q-80 0 -152.5 -37t-127 -105.5t-86 -171t-31.5 -235.5z" />
<glyph unicode="h" horiz-adv-x="1101" d="M82 27l201 1443q4 16 11 21.5t21 5.5h91q14 0 19 -5t3 -22l-59 -423q76 29 162.5 40t144.5 11q113 0 184.5 -33t110.5 -94.5t46 -149.5q2 -29 3 -61q0 -64 -10 -137l-84 -596q-2 -16 -9.5 -21.5t-21.5 -5.5h-92q-14 0 -20.5 5t-4.5 22l84 600q9 60 9 109q0 94 -32 148 q-48 83 -204 83q-29 0 -66 -3t-75.5 -9.5t-75.5 -15.5t-68 -21l-125 -891q-4 -16 -9 -21.5t-19 -5.5h-91q-14 0 -21 5q-4 3 -4 11q0 5 1 11z" />
<glyph unicode="i" horiz-adv-x="489" d="M121 27l143 1022q4 16 11.5 21t21.5 5h90q14 0 20.5 -5t2.5 -21l-144 -1022q-2 -16 -8 -21.5t-20 -5.5h-91q-14 0 -21 5q-5 4 -5 15v7zM287 1356q0 47 33.5 83t78.5 36q39 0 62.5 -27t23.5 -66q0 -47 -35.5 -79.5t-78.5 -32.5q-37 0 -60.5 24.5t-23.5 61.5z" />
<glyph unicode="j" horiz-adv-x="516" d="M-186 -348q-1 4 -1 7q0 15 21 22q92 33 149.5 74.5t92.5 94t52 116t28 138.5l133 945q2 16 9 21t21 5h93q14 0 20 -5t2 -21l-129 -924q-18 -137 -54 -234.5t-89 -164t-126 -108.5t-167 -69q-5 -1 -9 -1q-15 0 -18 16zM307 1356q0 47 34 83t81 36q37 0 61.5 -26t24.5 -65 q-2 -47 -37 -80.5t-78 -33.5q-39 0 -63 24q-23 23 -23 56v6z" />
<glyph unicode="k" horiz-adv-x="956" d="M80 27l203 1443q2 16 9 21.5t21 5.5h90q14 0 20.5 -5t4.5 -22l-135 -948l6 -4l514 541q8 8 14.5 12t20.5 4h127q11 0 11 -10q0 -7 -5 -12l-315 -332l225 -701q2 -6 0 -13t-12 -7h-101q-18 0 -25.5 5t-11.5 15l-182 590l-297 -303l-39 -280q-2 -16 -8 -21.5t-20 -5.5h-91 q-14 0 -21 5q-4 3 -4 11q0 5 1 11z" />
<glyph unicode="l" horiz-adv-x="507" d="M121 174l182 1296q4 16 10 21.5t21 5.5h92q16 0 22 -5q4 -3 5 -11q0 -5 -2 -11l-177 -1251q-3 -24 -3 -42q1 -25 7 -37q12 -20 54 -21q41 0 71 6q10 0 14.5 -3t8.5 -16l12 -71q2 -16 -2 -22.5t-20 -10.5q-41 -14 -82 -18t-70 -4q-98 0 -128 48q-20 32 -20 86q0 27 5 60z " />
<glyph unicode="m" horiz-adv-x="1751" d="M80 25l125 901q10 59 35.5 97t95.5 54q18 4 51 7t69 6.5t70.5 5.5t57.5 2q119 0 191.5 -27t125.5 -88q82 53 191.5 84t218.5 31q125 0 199.5 -39t111.5 -105.5t41 -157.5q1 -20 1 -41q0 -73 -11 -155l-80 -575q-4 -16 -9 -20.5t-20 -4.5h-92q-14 0 -20.5 4t-4.5 21 l78 544q13 92 13 165q0 72 -24 122q-24 51 -77 80t-145 29q-70 0 -156 -22.5t-151 -59.5q18 -60 18 -127v-14q-2 -74 -14 -160l-78 -557q-4 -16 -9 -20.5t-22 -4.5h-90q-14 0 -20.5 4t-4.5 21l78 561q10 70 10 131v21q-2 70 -28.5 119.5t-81.5 78.5t-152 29q-14 0 -40.5 -1 t-57.5 -4.5t-62.5 -6.5t-56.5 -9l-129 -919q-4 -16 -9 -20.5t-19 -4.5h-91q-16 0 -22 4q-4 3 -4 13v8z" />
<glyph unicode="n" horiz-adv-x="1101" d="M82 27l127 915q18 117 127 135q25 4 58.5 8.5t70.5 7.5t71.5 4t59.5 1q129 0 215 -29t135 -90q48 -61 62 -159q5 -39 6 -84q0 -70 -13 -154l-77 -555q-2 -16 -8.5 -21.5t-22.5 -5.5h-90q-14 0 -20.5 5t-4.5 22l78 546q11 76 11 138q0 18 -1 34q-4 74 -34.5 122t-94 73 t-170.5 25q-25 0 -83 -3.5t-130 -17.5l-129 -917q-4 -16 -9 -21.5t-19 -5.5h-91q-14 0 -21 5q-4 3 -4 11q0 5 1 11z" />
<glyph unicode="o" horiz-adv-x="1091" d="M102 391q0 172 42 304t116 221.5t171 135.5t208 46q188 0 292.5 -108.5t104.5 -315.5q0 -162 -37.5 -291t-108.5 -219t-171.5 -138.5t-222.5 -48.5q-190 0 -292 105.5t-102 308.5zM248 408q0 -137 61.5 -221.5t202.5 -84.5q109 0 181.5 54.5t115.5 138.5t61.5 184.5 t18.5 192.5q0 63 -13.5 117.5t-44 94.5t-80.5 63.5t-124 23.5q-100 0 -172 -49.5t-118 -129t-67.5 -180t-21.5 -204.5z" />
<glyph unicode="p" horiz-adv-x="1095" d="M23 -391l192 1382q2 25 29 33q102 43 204.5 58.5t196.5 15.5q104 0 178 -32t121 -90t69.5 -139t22.5 -182q0 -147 -36.5 -271t-106.5 -215t-171 -141.5t-230 -50.5q-59 0 -127 8.5t-140 30.5l-59 -407q-2 -16 -8 -20.5t-21 -4.5h-90q-16 0 -23 4q-3 2 -3 9q0 5 2 12z M244 150q78 -29 138 -36.5t107 -7.5q78 0 150 31t127 96.5t88 168t33 247.5q0 88 -19.5 149.5t-56.5 99.5t-88 54.5t-115 16.5q-53 0 -125.5 -11.5t-130.5 -33.5z" />
<glyph unicode="q" horiz-adv-x="1095" d="M104 410q0 152 36 277.5t105.5 216.5t174.5 142.5t242 51.5q90 0 190 -14.5t186 -53.5q18 -8 18 -25q0 -5 -1 -10l-195 -1390q-4 -16 -10 -21.5t-21 -5.5h-92q-16 0 -21 5t-3 22l59 422q-72 -23 -154.5 -36.5t-142.5 -13.5q-98 0 -168.5 32t-116 89.5t-66 137 t-20.5 174.5zM252 416q0 -158 66.5 -232.5t191.5 -74.5q41 0 120 10t161 39l108 772q-59 23 -128 31t-120 8q-76 0 -147.5 -31t-128 -97.5t-90 -171t-33.5 -253.5z" />
<glyph unicode="r" horiz-adv-x="708" d="M111 27l131 921q10 61 34.5 93t92.5 42q98 14 200.5 17.5t180.5 3.5q20 0 29 -5q5 -3 5 -15q0 -8 -2 -19l-16 -90q-6 -25 -15.5 -28t-25.5 -1q-37 2 -81 4t-89 4t-87 3t-79 1l-133 -931q-4 -16 -10 -21.5t-21 -5.5h-90q-14 0 -20 5q-5 4 -5 14q0 4 1 8z" />
<glyph unicode="s" horiz-adv-x="901" d="M49 96l31 68q8 14 15 17t24 -5q74 -37 155.5 -54.5t153.5 -17.5q106 0 177 47.5t75 139.5q0 72 -61.5 117t-172.5 90q-145 59 -209.5 126.5t-64.5 166.5q0 141 96.5 224t276.5 83q82 0 155.5 -13.5t143.5 -46.5q15 -6 15 -18q0 -6 -5 -14l-33 -80q-6 -12 -12 -12.5 t-14 4.5q-72 31 -132.5 42t-127.5 11q-100 0 -159 -49.5t-59 -126.5q0 -53 47.5 -94.5t172.5 -92.5q61 -25 113 -54.5t92 -66t62.5 -84t22.5 -108.5q0 -82 -32.5 -141.5t-89 -98.5t-131 -58.5t-156.5 -19.5q-90 0 -190.5 18.5t-172.5 61.5q-12 5 -12 17q0 9 6 22z" />
<glyph unicode="t" horiz-adv-x="718" d="M125 979l8 51q2 12 6 18.5t21 10.5l162 26l55 195q6 18 12 26.5t23 14.5l57 20q6 2 11 2q16 0 14 -22l-37 -246h252q16 0 19 -7q2 -4 2 -10q0 -4 -1 -9l-10 -70q-4 -12 -8 -18.5t-21 -6.5h-250l-96 -690q-3 -22 -3 -41q-1 -43 15 -71q22 -40 109 -39q25 0 72 4t84 12 q14 2 18 -2t6 -14l12 -76q2 -10 0 -17.5t-16 -13.5q-59 -16 -121.5 -21t-91.5 -5q-152 0 -202 66q-35 46 -35 129q0 35 6 77l98 702h-150q-16 0 -19 8q-2 4 -2 9q0 4 1 8z" />
<glyph unicode="u" horiz-adv-x="1089" d="M134 247q-3 29 -3 63q0 75 14 171l78 570q4 16 10.5 21t22.5 5h90q12 0 19.5 -5t3.5 -21l-78 -557q-14 -92 -14 -160v-17q2 -73 30.5 -118t90 -65.5t165.5 -20.5q23 0 84.5 3t132.5 17l129 918q4 16 9.5 21t21.5 5h92q14 0 20 -5q5 -4 5 -14v-7l-129 -918 q-10 -59 -40 -92t-89 -43q-29 -4 -65 -8t-72.5 -6t-69.5 -3t-57 -1q-133 0 -217.5 26.5t-129.5 86t-54 154.5z" />
<glyph unicode="v" horiz-adv-x="968" d="M131 1057q-1 3 -1 6q0 12 15 12h105q20 0 24 -16l121 -615l51 -311h9l135 307l291 619q4 8 8 12t16 4h115q14 0 14 -9q0 -4 -2 -9l-469 -985q-20 -43 -37.5 -61.5t-58.5 -18.5h-64q-33 0 -50 15.5t-27 62.5z" />
<glyph unicode="w" horiz-adv-x="1423" d="M131 1059q-1 3 -1 6q0 14 17 14h109q12 0 16 -4t7 -14l36 -643l17 -262h8l106 245l242 560q12 27 31.5 48t60.5 21h51q37 0 48.5 -20.5t15.5 -53.5l82 -528l43 -285h10l92 285l215 633q8 18 29 18h111q12 0 12 -11q0 -4 -2 -9l-357 -985q-16 -51 -41.5 -66.5t-56.5 -15.5 h-57q-41 0 -54.5 15.5t-19.5 60.5l-78 483l-41 303h-6l-127 -309l-215 -477q-16 -35 -34.5 -55.5t-59.5 -20.5h-61q-31 0 -49.5 15.5t-22.5 66.5z" />
<glyph unicode="x" horiz-adv-x="903" d="M-34 8q-1 2 0 4q0 7 7 15l420 544l-231 478q-4 6 -2 16t18 10h101q16 0 23 -5t13 -15l174 -371l279 371q8 10 15.5 15t23.5 5h115q15 0 15 -8q0 -9 -5 -14l-371 -475l273 -553q4 -6 2 -15.5t-17 -9.5h-110q-18 0 -25.5 5t-11.5 15l-203 439l-334 -436q-8 -10 -15 -16.5 t-24 -6.5h-116q-10 0 -14 8z" />
<glyph unicode="y" horiz-adv-x="952" d="M-126 -376q-1 2 -1 5q0 6 4 17l29 71q6 16 13 17.5t24 -4.5q113 -37 182 -37q61 0 108.5 35.5t96.5 142.5l65 137h-24q-23 0 -39.5 8.5t-24.5 51.5l-178 987q-4 20 14 20h101q14 0 18 -4t6 -14q6 -35 19.5 -107.5t27 -154.5t26.5 -155t19 -105q4 -29 13.5 -85.5t21 -120 t20.5 -120.5t15 -84h10q12 27 40 85t57.5 122.5t56.5 122t41 86.5l242 514q8 20 30 20h105q16 0 16 -9q0 -5 -4 -11l-580 -1239q-55 -117 -125.5 -185.5t-191.5 -68.5q-53 0 -113.5 13t-113.5 34q-23 10 -26 15z" />
<glyph unicode="z" horiz-adv-x="897" d="M-10 59l4 27q6 51 43 90l727 770l-2 6h-567q-16 0 -21.5 5.5t-3.5 19.5l12 72q2 12 7.5 19t21.5 7h659q40 0 56 -14q12 -11 13 -37q0 -7 -1 -14l-4 -29q-4 -18 -13.5 -38.5t-25.5 -39.5l-731 -776l2 -4h647q29 0 23 -25l-9 -71q-4 -14 -9 -20.5t-21 -6.5h-748 q-37 0 -50 16q-10 13 -10 31q0 6 1 12z" />
<glyph unicode="{" horiz-adv-x="688" d="M152 649l10 68q2 20 26 26q66 16 100 67.5t48 150.5l26 202q12 84 35 146.5t64 104.5t101.5 61.5t150.5 19.5q23 0 18 -16l-12 -82q-2 -10 -6 -15.5t-17 -5.5q-49 0 -81.5 -14t-52 -36.5t-30 -52.5t-14.5 -61l-35 -245q-14 -98 -57 -172t-119 -109l-2 -6q59 -29 87 -96.5 t14 -167.5l-48 -328q-10 -66 13.5 -112t120.5 -58q12 -2 15 -5t1 -13l-10 -84q-4 -16 -21 -17q-66 2 -119 20.5t-87.5 56.5t-50 96.5t-3.5 142.5l41 291q14 100 -7.5 151t-84.5 68q-8 4 -12 8t-2 16z" />
<glyph unicode="|" horiz-adv-x="421" d="M199 -252v1819q0 16 7 21t21 5h92q16 0 22.5 -5t6.5 -21v-1819q0 -16 -6 -21.5t-23 -5.5h-92q-14 0 -21 5.5t-7 21.5z" />
<glyph unicode="}" horiz-adv-x="688" d="M35 -178l10 84q2 18 23 20q53 4 85.5 20.5t53 41t30 55.5t13.5 63l43 312q14 98 60 164.5t114 97.5v6q-59 33 -86 98.5t-12 163.5l34 252q4 33 2 63.5t-16 55t-42 41t-75 22.5q-20 2 -16 19l12 84q2 8 5 11t16 3q61 -2 114.5 -20.5t89 -58.5t50 -103.5t2.5 -151.5 l-29 -204q-14 -100 7.5 -150.5t80.5 -67.5q10 -4 15.5 -8t3.5 -18l-11 -68q-2 -12 -7 -16t-19 -8q-66 -16 -99.5 -68.5t-48.5 -150.5l-37 -269q-12 -84 -34.5 -146.5t-63.5 -104.5t-102.5 -62.5t-149.5 -18.5q-20 0 -16 17z" />
<glyph unicode="~" d="M162 553q-14 14 0 33q72 86 140.5 120.5t133.5 34.5q51 0 101.5 -22.5t99.5 -49t95 -49t87 -22.5q49 0 87 28.5t79 82.5q10 10 17.5 10t17.5 -6l41 -29q18 -14 2 -37q-59 -86 -124 -127t-146 -41q-49 0 -99.5 21.5t-97.5 47t-92 47t-88 21.5q-51 0 -94 -23.5t-86 -68.5 q-20 -16 -33 -6z" />
<glyph unicode="&#xa1;" horiz-adv-x="522" d="M82 -350l174 1005q4 16 11 22.5t30 6.5h33q29 0 28 -25l-110 -1009q0 -10 -6 -19.5t-23 -9.5h-113q-18 0 -23 9.5t-1 19.5zM236 940q0 55 39 95t90 40q43 0 71.5 -27.5t28.5 -70.5q0 -55 -39 -94t-92 -39q-45 0 -71.5 26.5t-26.5 69.5z" />
<glyph unicode="&#xa2;" d="M203 401q0 154 34.5 281t98 217t155 141.5t205.5 55.5l27 196q4 23 27 23h34q20 0 19 -23l-29 -198q66 -6 132.5 -22.5t117.5 -45.5q14 -12 4 -37l-31 -69q-6 -12 -13 -15.5t-23 4.5q-41 18 -93.5 33.5t-111.5 20.5l-119 -854q72 2 137.5 19t112.5 38q16 8 20 4t11 -14 l32 -70q10 -23 -14 -37q-74 -41 -157 -55t-161 -17l-28 -196q-2 -23 -25 -23h-35q-20 0 -18 23l29 201q-166 16 -252 121.5t-86 297.5zM346 410q0 -117 48 -197t165 -100l117 848q-88 -10 -150.5 -61.5t-102.5 -128.5t-58.5 -172t-18.5 -189z" />
<glyph unicode="&#xa3;" d="M98 39v4q0 6 6 31q6 35 18.5 50t41.5 36q61 51 103 112.5t67.5 126t35 130t7.5 126.5h-170q-16 0 -19.5 8.5t-1.5 20.5l9 55q2 29 28 29h156q-4 29 -6 63.5t-4 71.5q-6 113 15.5 202t74.5 152.5t140 97.5t210 34q76 0 155.5 -14.5t145.5 -51.5q12 -6 10 -16.5t-6 -20.5 l-27 -65q-6 -16 -15 -16.5t-21 5.5q-51 23 -115 36.5t-123 13.5q-119 0 -182.5 -38t-90 -104.5t-26.5 -156t6 -193.5h398q16 0 19 -7t1 -18l-8 -59q-2 -29 -29 -29h-381q-2 -47 -11 -114.5t-30.5 -140t-59.5 -143.5t-100 -122h662q23 0 23 -8v-21l-13 -79q-4 -16 -8 -21.5 t-20 -5.5h-811q-53 0 -54 39z" />
<glyph unicode="&#xa4;" horiz-adv-x="1169" d="M213 211q-14 18 6 39l107 106q-84 103 -84 246q0 135 80 238l-101 100q-16 16 -2 35l49 51q12 10 18.5 10t16.5 -10l103 -104q47 35 105 54t122 19q66 0 125 -19.5t106 -53.5l109 108q18 18 37 2l47 -51q12 -10 11 -18.5t-11 -18.5l-109 -108q37 -49 57.5 -108.5 t20.5 -125.5q0 -68 -20.5 -128t-57.5 -109l107 -105q25 -20 4 -39l-47 -51q-20 -14 -39 6l-107 107q-49 -35 -108.5 -53.5t-124.5 -18.5q-127 0 -221 65l-109 -110q-10 -10 -19.5 -12t-19.5 10zM381 600q0 -53 19.5 -99t54 -80t81 -53.5t99.5 -19.5t99 19.5t81 53.5t54.5 80 t19.5 99q0 51 -19.5 97t-54.5 81t-81 54.5t-99 19.5t-99.5 -19.5t-81 -54.5t-54 -81t-19.5 -97z" />
<glyph unicode="&#xa5;" d="M160 418l6 49q4 14 9 21.5t22 7.5h813q27 0 20 -29l-6 -49q-4 -16 -8 -22.5t-21 -6.5h-344l-53 -364q-2 -16 -7 -20.5t-22 -4.5h-92q-14 0 -20 4t-2 21l51 364h-324q-16 0 -20 6t-2 23zM190 643l9 49q2 14 7 21.5t21 7.5h242l-219 635q-2 6 2 13t16 7h103q10 0 17 -3 t11 -17l125 -375l84 -283h8l160 283l223 375q10 20 37 20h121q10 0 11 -7t-3 -13l-393 -635h268q27 0 23 -29l-8 -49q-2 -29 -29 -29h-813q-16 0 -19.5 6.5t-3.5 22.5z" />
<glyph unicode="&#xa6;" horiz-adv-x="421" d="M199 -252v830q0 16 7 21t21 5h92q16 0 22.5 -5t6.5 -21v-830q0 -16 -6 -21.5t-23 -5.5h-92q-14 0 -21 5.5t-7 21.5zM199 729v832q0 16 7 20t21 4h92q16 0 22.5 -4t6.5 -20v-832q0 -16 -6 -20t-23 -4h-92q-14 0 -21 4t-7 20z" />
<glyph unicode="&#xa7;" horiz-adv-x="1085" d="M128 -190.5q-1 6.5 5 20.5l29 66q4 10 10 13t21 -3q43 -20 107.5 -36.5t117.5 -16.5q74 0 124 15t80.5 40.5t44 59.5t13.5 71q0 59 -56.5 125.5t-131.5 134.5q-57 51 -112.5 103.5t-99.5 105.5t-71 108.5t-27 114.5q0 80 57.5 166t149.5 141q-25 35 -39 78t-14 86 q0 63 23.5 119.5t71.5 97.5t123 64.5t177 23.5q66 0 140.5 -12t127.5 -39q8 -4 9.5 -9t-2.5 -20l-29 -69q-8 -16 -31 -8q-47 16 -105.5 28.5t-119.5 12.5q-119 0 -179.5 -48.5t-60.5 -125.5q0 -66 57.5 -128.5t147.5 -140.5q61 -57 115.5 -108.5t94.5 -102.5t62.5 -103 t22.5 -110q0 -78 -53.5 -163t-153.5 -144q29 -41 42 -85t13 -87q0 -59 -23.5 -115.5t-72.5 -99.5t-123 -69.5t-174 -26.5q-33 0 -72.5 5t-79.5 13t-78 19.5t-65 25.5q-12 6 -13 12.5zM326 748q0 -37 18 -73t51 -75t80 -84t105 -100q29 -29 65.5 -65t63.5 -58q59 39 92 94 t33 107q0 45 -17.5 84.5t-49.5 78.5t-77 82.5t-100 96.5q-35 35 -65.5 64.5t-53.5 53.5q-61 -35 -103 -92t-42 -114z" />
<glyph unicode="&#xa8;" horiz-adv-x="1089" d="M395 1360q0 41 34 73.5t75 32.5q35 0 58.5 -24.5t23.5 -59.5q-2 -43 -37 -75.5t-74 -32.5q-35 0 -58.5 25.5t-21.5 60.5zM743 1360q0 41 34 73.5t75 32.5q35 0 59.5 -24.5t24.5 -59.5q-2 -41 -37 -74.5t-72 -33.5t-61.5 25.5t-22.5 60.5z" />
<glyph unicode="&#xa9;" horiz-adv-x="1667" d="M168 715q0 158 56.5 294t155.5 235t235.5 155.5t293.5 56.5q158 0 293 -56.5t234.5 -155.5t156 -235t56.5 -294t-56.5 -293t-156 -234.5t-234.5 -156t-293 -56.5t-294 56.5t-235 156t-155.5 234.5t-56.5 293zM256 715q0 -141 50 -262t137 -208t207 -137.5t259 -50.5 t258 50.5t207 137.5t137.5 208t49.5 262t-49.5 262t-137.5 208t-206.5 137t-258.5 50q-139 0 -259 -50t-207 -137t-137 -208t-50 -262zM526 696q0 106 28 193.5t78 149t121.5 95t159.5 33.5q80 0 148.5 -24.5t122.5 -77.5q4 -8 6 -15.5t-8 -17.5q-2 -2 -10.5 -10 t-17.5 -16.5t-16.5 -15.5t-9.5 -7q-10 -4 -26 8q-82 72 -187 72q-72 0 -124 -27.5t-85.5 -77t-50 -116t-16.5 -146.5q0 -78 17.5 -144.5t51 -115.5t86 -76.5t121.5 -27.5q59 0 105.5 19.5t83.5 54.5q16 14 29 4l51 -43q18 -14 2 -31q-105 -111 -273 -111q-90 0 -161.5 35 t-121.5 96.5t-77 148.5t-27 191z" />
<glyph unicode="&#xaa;" horiz-adv-x="759" d="M123 821q0 211 101.5 333t297.5 122q49 0 111.5 -6t128.5 -25q25 -10 30 -22.5t1 -28.5q-23 -145 -43.5 -287.5t-36.5 -288.5q-4 -16 -10.5 -23t-22.5 -15q-70 -29 -142.5 -37t-125.5 -8q-154 0 -221.5 76.5t-67.5 209.5zM252 838q0 -102 50 -148.5t142 -46.5q29 0 69 4 t81 17q16 123 33.5 242.5t36.5 240.5q-43 12 -82 15t-72 3q-53 0 -99 -17.5t-82 -56t-56.5 -101t-20.5 -152.5z" />
<glyph unicode="&#xab;" horiz-adv-x="935" d="M145 500q2 23 15.5 41t23.5 32l246 330q10 14 21.5 22.5t40.5 8.5h83q16 0 19.5 -10.5t-6.5 -24.5l-297 -403l190 -392q12 -33 -24 -32h-86q-27 0 -35 7t-17 23l-159 328q-6 16 -12.5 34.5t-2.5 35.5zM451 500q4 23 16 41t22 32l248 330q10 14 21.5 22.5t36.5 8.5h84 q16 0 20 -10.5t-6 -24.5l-297 -403l190 -392q6 -16 -1 -24t-23 -8h-86q-25 0 -34 7t-15 23l-160 328q-8 16 -13 34.5t-3 35.5z" />
<glyph unicode="&#xac;" d="M143 659l15 91q2 14 7 21t21 7h899q16 0 19.5 -7t1.5 -21l-74 -525q-4 -16 -9 -21t-22 -5h-92q-14 0 -20 5t-2 21l55 406h-776q-16 0 -20.5 6t-2.5 22z" />
<glyph unicode="&#xad;" horiz-adv-x="643" d="M80 522l18 119q2 14 7.5 20.5t21.5 6.5h457q23 0 20 -27l-18 -119q-2 -16 -6.5 -21t-20.5 -5h-457q-29 0 -22 26z" />
<glyph unicode="&#xae;" horiz-adv-x="1126" d="M184 989q0 98 35 182t96.5 146.5t144.5 98.5t179 36t179 -36t144.5 -98.5t96.5 -146.5t35 -182q0 -96 -36 -180t-97.5 -145.5t-144.5 -97.5t-177 -36q-96 0 -179 36t-144.5 97.5t-96.5 145.5t-35 180zM258 989q0 -82 28.5 -152.5t80 -122.5t121 -83t151.5 -31 q80 0 149.5 31t121 83t81 122.5t29.5 152.5t-28.5 155t-80 125t-121 82.5t-151.5 30.5t-151.5 -30.5t-121 -82.5t-80 -125t-28.5 -155zM446 729v504q0 23 8.5 34t34.5 11h185q82 0 128 -45t46 -117q0 -43 -23.5 -81t-62.5 -60q31 -12 43 -33.5t20 -50.5l47 -158q4 -6 0 -14 t-14 -8h-47q-14 0 -16 16l-47 152q-10 45 -38 60t-67 15h-121v-225q0 -18 -18 -18h-41q-16 0 -17 18zM522 1020h140q53 0 80.5 26.5t27.5 67.5q0 35 -24.5 63.5t-77.5 28.5h-146v-186z" />
<glyph unicode="&#xaf;" horiz-adv-x="643" d="M182 1227l8 65q4 16 9.5 22.5t21.5 6.5h469q16 0 20.5 -6t0.5 -23l-9 -65q-4 -16 -8 -22.5t-20 -6.5h-469q-29 0 -23 29z" />
<glyph unicode="&#xb0;" horiz-adv-x="755" d="M160 1149q0 61 21.5 112.5t60.5 88t91 57t111 20.5t110.5 -20.5t89.5 -57t59.5 -88t21.5 -112.5q0 -63 -21.5 -114.5t-59.5 -88.5t-90 -57.5t-112 -20.5q-59 0 -111 20.5t-90 57.5t-59.5 88t-21.5 115zM258 1149q0 -84 53.5 -138.5t130.5 -54.5q80 0 134.5 54.5 t54.5 138.5q0 80 -54.5 134t-132.5 54q-80 0 -133 -54t-53 -134z" />
<glyph unicode="&#xb1;" d="M55 23l17 98q2 12 7 17t21 5h897q16 0 20.5 -5t2.5 -17l-16 -98q0 -25 -27 -25h-899q-16 0 -19.5 6t-3.5 19zM158 715l16 88q0 29 27 28h377l57 406q2 16 9 21.5t22 5.5h92q14 0 20 -5.5t4 -21.5l-57 -406h375q16 0 19 -6t3 -22l-14 -88q-2 -29 -29 -29h-374l-58 -405 q-2 -16 -8 -20.5t-23 -4.5h-92q-14 0 -20 4t-2 21l55 405h-375q-16 0 -21 6t-3 23z" />
<glyph unicode="&#xb2;" horiz-adv-x="792" d="M133 803q0 45 34 97t87 103.5t118.5 97.5t127.5 81q90 49 135 85t45 91q0 53 -43 77.5t-113 24.5q-47 0 -102 -16.5t-105 -44.5q-12 -6 -23 -9.5t-20 11.5l-32 53q-8 23 16 41q61 37 135 58.5t142 21.5q119 0 194.5 -47t75.5 -150q0 -57 -20.5 -99t-55.5 -77t-82 -63.5 t-100 -57.5q-35 -20 -76 -44.5t-79 -53.5t-69.5 -63.5t-50.5 -75.5h433q23 0 23.5 -7.5t-1.5 -21.5l-6 -53q-2 -10 -8 -19.5t-23 -9.5h-475q-47 0 -64.5 19.5t-17.5 50.5z" />
<glyph unicode="&#xb3;" horiz-adv-x="792" d="M127 831l35 52q8 12 16 11t23 -9q37 -25 93 -40.5t109 -15.5q111 0 167.5 48.5t56.5 117.5q0 53 -44 88t-126 35h-47q-16 0 -25.5 5t-5.5 24l8 53q4 16 11.5 21.5t25.5 5.5h35q84 0 134 38t50 99q0 29 -13.5 47.5t-35 29.5t-48 15t-52.5 4q-53 0 -105.5 -13t-99.5 -36 q-16 -6 -27.5 -9t-17.5 11l-25 53q-4 10 -3 18.5t17 18.5q63 35 137 52.5t148 17.5q109 0 181.5 -49t72.5 -142q0 -68 -37 -121t-102 -83l-2 -7q63 -20 92 -67t29 -109q0 -57 -25 -107t-70 -87t-109 -58.5t-142 -21.5t-149 19.5t-122 56.5q-20 16 -8 34z" />
<glyph unicode="&#xb4;" horiz-adv-x="878" d="M518 1255l174 306q6 10 13.5 17t23.5 3l113 -31q27 -6 8 -28l-244 -301q-18 -20 -37 -13l-43 19q-20 8 -8 28z" />
<glyph unicode="&#xb6;" horiz-adv-x="960" d="M152 1020q0 100 33.5 177t91 130t131 81t153.5 28h170q16 0 17 -17l-99 -694q0 -18 -20 -18h-168q-72 0 -129.5 23.5t-97 65.5t-61 99t-21.5 125zM328 -283l4 74v4q0 6 4 12.5t12 6.5q88 8 144.5 29.5t89 55t49 82t24.5 111.5l187 1327q0 8 7 12.5t15 4.5h76q16 0 16 -15 v-2l-182 -1284q-14 -98 -33.5 -176t-63.5 -133t-123 -87t-210 -38q-16 0 -16 16z" />
<glyph unicode="&#xb7;" horiz-adv-x="512" d="M166 586q0 59 40 100t99 41q47 0 76 -27.5t29 -74.5q0 -59 -42 -101.5t-98 -42.5q-47 0 -75.5 29t-28.5 76z" />
<glyph unicode="&#xb8;" horiz-adv-x="958" d="M256 -384q-2 5 4 17l19 37q8 16 14 15.5t16 -4.5q29 -10 63.5 -17.5t63.5 -7.5q115 0 115 84q0 39 -31 57.5t-84 18.5q-14 0 -24.5 -1t-18.5 5q-20 16 -4 45l70 149q4 10 8 13.5t16 3.5h52q10 0 10 -5.5t-2 -9.5l-60 -127q102 -6 140.5 -51t38.5 -98q0 -31 -13.5 -60.5 t-40 -54t-68.5 -40t-100 -15.5q-51 0 -99 11t-75 26q-8 4 -10 9z" />
<glyph unicode="&#xb9;" horiz-adv-x="792" d="M215 762l6 53q2 16 7 21.5t26 5.5h137l84 598l-141 -25q-12 -2 -19.5 2t-3.5 23l4 45q4 16 9.5 23.5t21.5 11.5l189 47q31 8 55 -1.5t18 -45.5l-94 -678h139q20 0 25.5 -5.5t1.5 -21.5l-6 -53q-4 -16 -10.5 -22.5t-26.5 -6.5h-399q-18 0 -22.5 6t-0.5 23z" />
<glyph unicode="&#xba;" horiz-adv-x="753" d="M123 813q0 113 29.5 199t81 144t120 88t144.5 30q139 0 209.5 -78t70.5 -221q0 -104 -29.5 -187t-80 -139.5t-119 -86.5t-148.5 -30q-133 0 -205.5 72t-72.5 209zM246 827q0 -84 38 -136t130 -52q68 0 113.5 30.5t75.5 80t43 107.5t13 114q0 84 -38 140t-132 56 q-63 0 -109 -29.5t-76 -76.5t-44 -108.5t-14 -125.5z" />
<glyph unicode="&#xbb;" horiz-adv-x="935" d="M70 104l299 396l-179 399q-6 14 0.5 24.5t22.5 10.5h86q25 0 33 -8t16 -23l152 -328q6 -16 13 -34.5t3 -40.5q-4 -14 -14 -34t-19 -34l-254 -330q-8 -16 -20 -23t-37 -7h-90q-35 0 -12 32zM381 104l299 396l-180 399q-4 14 2 24.5t22 10.5h82q27 0 35 -8t16 -23l152 -328 q6 -16 13 -34.5t3 -40.5q-4 -14 -14 -34t-20 -34l-252 -330q-8 -16 -20.5 -23t-39.5 -7h-86q-35 0 -12 32z" />
<glyph unicode="&#xbc;" horiz-adv-x="1761" d="M252 555q-4 6 0 23l6 53q2 16 7 21t26 5h137l84 598l-141 -24q-12 -2 -19.5 2t-3.5 22l4 45q4 16 9.5 23.5t21.5 11.5l188 47q31 8 55.5 -1t18.5 -46l-94 -678h139q20 0 25.5 -5t1.5 -21l-6 -53q-4 -16 -10.5 -22.5t-26.5 -6.5h-400q-18 0 -22 6zM401 -23l1014 1430 q10 14 16.5 19.5t20.5 5.5h59q8 0 14.5 -5.5t-3.5 -19.5l-1016 -1430q-10 -14 -17.5 -19t-23.5 -5h-51q-27 0 -13 24zM889 231q0 2 2 12.5t2 12.5q4 18 10 31.5t23 29.5l460 482q18 18 36 30.5t40 12.5h39q29 0 41 -12.5t8 -45.5l-69 -495h86q20 0 23 -7.5t1 -23.5l-6 -43 q-4 -16 -9 -23.5t-24 -7.5h-88l-22 -155q-2 -20 -10.5 -24.5t-24.5 -4.5h-59q-16 0 -23.5 4t-5.5 25l22 153h-401q-23 0 -39 9.5t-12 39.5zM1053 295l2 -6h303l55 383q-2 0 -3 1t-3 1z" />
<glyph unicode="&#xbd;" horiz-adv-x="1761" d="M209 555q-4 6 0 23l6 53q2 16 7 21t26 5h137l84 598l-141 -24q-12 -2 -19.5 2t-3.5 22l4 45q4 16 9.5 23.5t21.5 11.5l188 47q31 8 55.5 -1t18.5 -46l-94 -678h139q20 0 25.5 -5t1.5 -21l-6 -53q-4 -16 -10.5 -22.5t-26.5 -6.5h-400q-18 0 -22 6zM334 -23l1014 1430 q10 14 16 19.5t20 5.5h60q8 0 14 -5.5t-4 -19.5l-1016 -1430q-10 -14 -17 -19t-24 -5h-51q-27 0 -12 24zM963 70q0 45 33.5 97t87 103.5t119 97.5t126.5 81q90 49 135 84.5t45 91.5q0 53 -42.5 77.5t-112.5 24.5q-47 0 -102.5 -16.5t-104.5 -44.5q-12 -6 -23.5 -9.5 t-19.5 11.5l-33 53q-8 23 16 41q61 37 135 58.5t142 21.5q119 0 194.5 -47t75.5 -150q0 -57 -20.5 -99t-55 -77t-81.5 -63.5t-101 -57.5q-35 -20 -75.5 -44.5t-78.5 -53.5t-70 -63.5t-50 -75.5h432q23 0 24 -7.5t-2 -21.5l-6 -53q-2 -10 -8 -19.5t-22 -9.5h-476 q-47 0 -64 19.5t-17 50.5z" />
<glyph unicode="&#xbe;" horiz-adv-x="1761" d="M197 647l34 51q8 12 16.5 11.5t22.5 -9.5q37 -25 93.5 -40t109.5 -15q111 0 167 48t56 118q0 53 -44 88t-126 35h-47q-16 0 -25.5 5t-4.5 24l8 53q4 16 11 21t26 5h34q84 0 134.5 38t50.5 100q0 29 -13.5 47t-35 29.5t-48 15.5t-53.5 4q-53 0 -105 -13.5t-100 -35.5 q-16 -6 -27.5 -9.5t-17.5 11.5l-24 53q-4 10 -3 18.5t17 18.5q63 35 137 52.5t148 17.5q109 0 181.5 -49.5t72.5 -141.5q0 -68 -37 -121t-103 -84l-2 -6q63 -20 92 -67.5t29 -108.5q0 -57 -24.5 -107.5t-69.5 -87t-109.5 -58t-142.5 -21.5t-148.5 19t-121.5 56q-20 16 -8 35 zM438 -23l1014 1430q10 14 16.5 19.5t20.5 5.5h59q8 0 14.5 -5.5t-3.5 -19.5l-1016 -1430q-10 -14 -17.5 -19t-23.5 -5h-51q-27 0 -13 24zM948 231q0 2 2 12.5t2 12.5q4 18 10.5 31.5t22.5 29.5l461 482q18 18 35.5 30.5t40.5 12.5h39q29 0 41 -12.5t8 -45.5l-70 -495h86 q20 0 23.5 -7.5t1.5 -23.5l-6 -43q-4 -16 -9.5 -23.5t-23.5 -7.5h-88l-23 -155q-2 -20 -10 -24.5t-25 -4.5h-59q-16 0 -23.5 4t-5.5 25l23 153h-402q-23 0 -39 9.5t-12 39.5zM1112 295l2 -6h303l56 383q-2 0 -3.5 1t-3.5 1z" />
<glyph unicode="&#xbf;" horiz-adv-x="997" d="M45 -80q0 70 22.5 126t59.5 104.5t84 89.5t96 79q45 35 88 69t79 70t61.5 75.5t33.5 87.5l11 77q4 16 8 19.5t14 3.5h105q25 0 20 -23l-10 -80q-10 -70 -41 -124t-74 -99t-94 -83t-100 -74q-94 -72 -151.5 -145t-57.5 -152q0 -84 57.5 -140.5t194.5 -56.5q33 0 75.5 7 t87.5 21.5t90.5 36t86.5 48.5q10 8 22 8t18 -10l43 -70q14 -20 -12 -37q-98 -72 -214 -105.5t-210 -33.5q-86 0 -157.5 19.5t-124 58.5t-82 97t-29.5 136zM573 942q2 57 41 97t95 40q47 0 74.5 -28.5t25.5 -73.5q0 -57 -41 -97t-96 -40q-14 0 -31.5 5t-33 17t-25 31.5 t-9.5 48.5z" />
<glyph unicode="&#xc0;" horiz-adv-x="1202" d="M-19.5 10q-3.5 10 1.5 23l647 1333q23 43 40 56.5t58 15.5h49q47 0 59.5 -15.5t22.5 -56.5l266 -1333q4 -10 -1 -21.5t-21 -11.5h-103q-16 0 -25 3t-13 24l-58 315h-592l-149 -315q-8 -14 -15.5 -20.5t-23.5 -6.5h-123q-16 0 -19.5 10zM373 483h504l-82 463l-56 311h-8 l-141 -303zM473 1741l72 92q10 12 19 10t18 -10l258 -219q20 -16 6 -33l-31 -45q-8 -10 -16 -10t-19 6l-305 176q-18 12 -2 33z" />
<glyph unicode="&#xc1;" horiz-adv-x="1202" d="M-19.5 10q-3.5 10 1.5 23l647 1333q23 43 40 56.5t58 15.5h49q47 0 59.5 -15.5t22.5 -56.5l266 -1333q4 -10 -1 -21.5t-21 -11.5h-103q-16 0 -25 3t-13 24l-58 315h-592l-149 -315q-8 -14 -15.5 -20.5t-23.5 -6.5h-123q-16 0 -19.5 10zM373 483h504l-82 463l-56 311h-8 l-141 -303zM696 1599.5q0 6.5 15 16.5l301 199q10 8 19 9t18 -12l55 -98q16 -20 -8 -31l-338 -153q-23 -10 -35 8l-23 45q-4 10 -4 16.5z" />
<glyph unicode="&#xc2;" horiz-adv-x="1202" d="M-19.5 10q-3.5 10 1.5 23l647 1333q23 43 40 56.5t58 15.5h49q47 0 59.5 -15.5t22.5 -56.5l266 -1333q4 -10 -1 -21.5t-21 -11.5h-103q-16 0 -25 3t-13 24l-58 315h-592l-149 -315q-8 -14 -15.5 -20.5t-23.5 -6.5h-123q-16 0 -19.5 10zM373 483h504l-82 463l-56 311h-8 l-141 -303zM455 1563q-12 14 4 28l266 199q45 33 78 33q16 0 33.5 -5.5t40.5 -27.5l202 -203q14 -12 -2 -33l-28 -28q-8 -10 -15.5 -8t-19.5 8l-234 145l-270 -145q-20 -10 -31 4z" />
<glyph unicode="&#xc3;" horiz-adv-x="1202" d="M-19.5 10q-3.5 10 1.5 23l647 1333q23 43 40 56.5t58 15.5h49q47 0 59.5 -15.5t22.5 -56.5l266 -1333q4 -10 -1 -21.5t-21 -11.5h-103q-16 0 -25 3t-13 24l-58 315h-592l-149 -315q-8 -14 -15.5 -20.5t-23.5 -6.5h-123q-16 0 -19.5 10zM373 483h504l-82 463l-56 311h-8 l-141 -303zM416 1588q-2 5 6 18q43 61 98 95t121 34q33 0 63.5 -11.5t59.5 -26t56.5 -25.5t56.5 -11q68 0 110 61q10 12 14.5 14.5t14.5 -1.5l65 -25q23 -8 15 -27q-41 -78 -93 -110.5t-120 -32.5q-35 0 -67 12.5t-62.5 25.5t-60 25.5t-60.5 12.5q-61 0 -117 -62 q-8 -10 -14 -14t-17 4l-57 33q-10 6 -12 11z" />
<glyph unicode="&#xc4;" horiz-adv-x="1202" d="M-19.5 10q-3.5 10 1.5 23l647 1333q23 43 40 56.5t58 15.5h49q47 0 59.5 -15.5t22.5 -56.5l266 -1333q4 -10 -1 -21.5t-21 -11.5h-103q-16 0 -25 3t-13 24l-58 315h-592l-149 -315q-8 -14 -15.5 -20.5t-23.5 -6.5h-123q-16 0 -19.5 10zM373 483h504l-82 463l-56 311h-8 l-141 -303zM487 1622q0 41 34 74t75 33q35 0 58.5 -25t23.5 -59q-2 -43 -37 -76t-74 -33q-35 0 -58.5 25.5t-21.5 60.5zM836 1622q0 41 33.5 74t74.5 33q35 0 59.5 -25t24.5 -59q-2 -41 -37 -75t-71 -34q-37 0 -61.5 25.5t-22.5 60.5z" />
<glyph unicode="&#xc5;" horiz-adv-x="1202" d="M-19.5 10q-3.5 10 1.5 23l647 1333q23 43 40 56.5t58 15.5h49q47 0 59.5 -15.5t22.5 -56.5l266 -1333q4 -10 -1 -21.5t-21 -11.5h-103q-16 0 -25 3t-13 24l-58 315h-592l-149 -315q-8 -14 -15.5 -20.5t-23.5 -6.5h-123q-16 0 -19.5 10zM373 483h504l-82 463l-56 311h-8 l-141 -303zM592 1632q0 45 16.5 83t45 66.5t66.5 45t81 16.5q72 0 114.5 -42t42.5 -111q0 -43 -16 -81t-45 -65.5t-66.5 -44t-78.5 -16.5q-70 0 -115 42t-45 107zM668 1645q0 -41 25.5 -66t66.5 -25q49 0 86 36t37 89q0 41 -25.5 65.5t-66.5 24.5q-49 0 -86 -35.5t-37 -88.5 z" />
<glyph unicode="&#xc6;" horiz-adv-x="1671" d="M-18 18l553 1172q57 123 139 184.5t217 61.5h805q16 0 19 -7.5t1 -21.5l-12 -86q-2 -29 -29 -29h-479q-96 0 -144 -45t-61 -137l-41 -281h609q29 0 22 -28l-10 -80q-2 -14 -8.5 -21.5t-22.5 -7.5h-608l-51 -368q-12 -80 20.5 -130.5t132.5 -50.5h522q29 0 23 -28l-12 -88 q-2 -14 -7.5 -20.5t-21.5 -6.5h-537q-90 0 -148 25.5t-89 71.5t-38 108.5t5 138.5h-438l-150 -324q-12 -20 -30 -20h-119q-23 0 -12 18zM348 473h402l88 625q10 63 29.5 117.5t50.5 82.5q-106 0 -162 -28.5t-88 -102.5l-74 -149z" />
<glyph unicode="&#xc7;" horiz-adv-x="1167" d="M141 549q0 215 51.5 383t141.5 283.5t216 177t273 61.5q37 0 83 -3t95.5 -12t99.5 -26.5t97 -44.5q10 -4 11 -12t-9 -29l-33 -74q-12 -25 -34 -12q-74 41 -156 54.5t-148 13.5q-147 0 -247.5 -65.5t-162 -172t-89 -243t-27.5 -279.5q0 -96 18.5 -175t62.5 -135.5 t115.5 -87t178.5 -30.5q88 0 179 23.5t169 58.5q20 10 26.5 4t12.5 -17l35 -71q10 -20 4 -29.5t-19 -15.5q-111 -57 -227.5 -75.5t-206.5 -21.5l-41 -88q102 -6 140 -51t38 -98q0 -31 -13 -60.5t-39.5 -54t-68.5 -40t-100 -15.5q-51 0 -99 11t-75 26q-8 4 -10 9t4 17l19 37 q8 16 14 15.5t16 -4.5q29 -10 63.5 -17.5t63.5 -7.5q115 0 115 84q0 39 -31 57.5t-84 18.5q-14 0 -24.5 -1t-18.5 5q-20 16 -4 45l53 117q-211 18 -319.5 157.5t-108.5 409.5z" />
<glyph unicode="&#xc8;" horiz-adv-x="1124" d="M141 206.5q-6 61.5 4 131.5l105 758q10 70 31.5 132t61.5 108t102.5 73t156.5 27h541q20 0 25.5 -9.5t2.5 -27.5l-12 -72q-2 -20 -8 -27.5t-27 -7.5h-520q-92 0 -138 -43t-58 -131l-41 -287h645q18 0 23 -7t3 -27l-10 -68q-2 -16 -9 -25.5t-26 -9.5h-645l-53 -377 q-10 -78 20.5 -125t126.5 -47h564q20 0 24 -8t0 -28l-8 -72q-2 -18 -9 -27.5t-28 -9.5h-563q-96 0 -155.5 26.5t-89.5 72.5t-36 107.5zM549 1741l72 92q10 12 19 10t17 -10l258 -219q20 -16 7 -33l-31 -45q-8 -10 -16.5 -10t-18.5 6l-305 176q-18 12 -2 33z" />
<glyph unicode="&#xc9;" horiz-adv-x="1124" d="M141 206.5q-6 61.5 4 131.5l105 758q10 70 31.5 132t61.5 108t102.5 73t156.5 27h541q20 0 25.5 -9.5t2.5 -27.5l-12 -72q-2 -20 -8 -27.5t-27 -7.5h-520q-92 0 -138 -43t-58 -131l-41 -287h645q18 0 23 -7t3 -27l-10 -68q-2 -16 -9 -25.5t-26 -9.5h-645l-53 -377 q-10 -78 20.5 -125t126.5 -47h564q20 0 24 -8t0 -28l-8 -72q-2 -18 -9 -27.5t-28 -9.5h-563q-96 0 -155.5 26.5t-89.5 72.5t-36 107.5zM684 1599.5q0 6.5 14 16.5l301 199q10 8 19.5 9t17.5 -12l56 -98q16 -20 -9 -31l-338 -153q-23 -10 -34 8l-23 45q-4 10 -4 16.5z" />
<glyph unicode="&#xca;" horiz-adv-x="1124" d="M141 206.5q-6 61.5 4 131.5l105 758q10 70 31.5 132t61.5 108t102.5 73t156.5 27h541q20 0 25.5 -9.5t2.5 -27.5l-12 -72q-2 -20 -8 -27.5t-27 -7.5h-520q-92 0 -138 -43t-58 -131l-41 -287h645q18 0 23 -7t3 -27l-10 -68q-2 -16 -9 -25.5t-26 -9.5h-645l-53 -377 q-10 -78 20.5 -125t126.5 -47h564q20 0 24 -8t0 -28l-8 -72q-2 -18 -9 -27.5t-28 -9.5h-563q-96 0 -155.5 26.5t-89.5 72.5t-36 107.5zM483 1563q-12 14 4 28l267 199q45 33 77 33q16 0 34 -5.5t40 -27.5l203 -203q14 -12 -2 -33l-29 -28q-8 -10 -15 -8t-20 8l-233 145 l-270 -145q-20 -10 -31 4z" />
<glyph unicode="&#xcb;" horiz-adv-x="1124" d="M141 206.5q-6 61.5 4 131.5l105 758q10 70 31.5 132t61.5 108t102.5 73t156.5 27h541q20 0 25.5 -9.5t2.5 -27.5l-12 -72q-2 -20 -8 -27.5t-27 -7.5h-520q-92 0 -138 -43t-58 -131l-41 -287h645q18 0 23 -7t3 -27l-10 -68q-2 -16 -9 -25.5t-26 -9.5h-645l-53 -377 q-10 -78 20.5 -125t126.5 -47h564q20 0 24 -8t0 -28l-8 -72q-2 -18 -9 -27.5t-28 -9.5h-563q-96 0 -155.5 26.5t-89.5 72.5t-36 107.5zM508 1624q0 41 33.5 74t74.5 33q35 0 58.5 -25t23.5 -59q-2 -43 -36.5 -76t-73.5 -33q-35 0 -58.5 25.5t-21.5 60.5zM856 1624 q0 41 34 74t75 33q35 0 59.5 -25t24.5 -59q-2 -41 -37 -75t-72 -34t-61.5 25.5t-22.5 60.5z" />
<glyph unicode="&#xcc;" horiz-adv-x="514" d="M100 1741l72 92q10 12 19.5 10t17.5 -10l258 -219q20 -16 6 -33l-31 -45q-8 -10 -16 -10t-18 6l-306 176q-18 12 -2 33zM131 33l193 1368q4 20 13 26.5t28 6.5h86q18 0 24 -6.5t4 -26.5l-194 -1368q-2 -20 -9.5 -26.5t-25.5 -6.5h-86q-18 0 -27.5 6t-5.5 27z" />
<glyph unicode="&#xcd;" horiz-adv-x="514" d="M131 33l193 1368q4 20 13 26.5t28 6.5h86q18 0 24 -6.5t4 -26.5l-194 -1368q-2 -20 -9.5 -26.5t-25.5 -6.5h-86q-18 0 -27.5 6t-5.5 27zM369 1599.5q0 6.5 14 16.5l301 199q10 8 19.5 9t17.5 -12l55 -98q16 -20 -8 -31l-338 -153q-23 -10 -35 8l-22 45q-4 10 -4 16.5z " />
<glyph unicode="&#xce;" horiz-adv-x="514" d="M106 1563q-12 14 5 28l266 199q45 33 78 33q16 0 33.5 -5.5t39.5 -27.5l203 -203q14 -12 -2 -33l-29 -28q-8 -10 -15 -8t-19 8l-234 145l-270 -145q-20 -10 -31 4zM131 33l193 1368q4 20 13 26.5t28 6.5h86q18 0 24 -6.5t4 -26.5l-194 -1368q-2 -20 -9.5 -26.5 t-25.5 -6.5h-86q-18 0 -27.5 6t-5.5 27z" />
<glyph unicode="&#xcf;" horiz-adv-x="514" d="M131 33l193 1368q4 20 13 26.5t28 6.5h86q18 0 24 -6.5t4 -26.5l-194 -1368q-2 -20 -9.5 -26.5t-25.5 -6.5h-86q-18 0 -27.5 6t-5.5 27zM174 1624q0 41 34 74t75 33q35 0 58.5 -25t23.5 -59q-2 -43 -37 -76t-74 -33q-35 0 -58.5 25.5t-21.5 60.5zM522 1624q0 41 34 74 t75 33q35 0 59.5 -25t24.5 -59q-2 -41 -37 -75t-72 -34t-61.5 25.5t-22.5 60.5z" />
<glyph unicode="&#xd0;" horiz-adv-x="1325" d="M61 698l11 74q4 14 8 20.5t20 6.5h105l76 538q8 47 30.5 72t75.5 25l350 2q274 0 403.5 -153t129.5 -421q0 -188 -46 -347t-135.5 -272.5t-223.5 -178t-308 -64.5h-371q-49 0 -68.5 21.5t-11.5 72.5l80 576h-104q-16 0 -19.5 6t-1.5 22zM266 143h295q150 0 255.5 58.5 t171 157t96 226.5t30.5 267q0 94 -18.5 175t-64.5 140.5t-125 92t-197 32.5h-281l-70 -493h367q29 0 23 -27l-11 -74q-2 -29 -30 -28h-367z" />
<glyph unicode="&#xd1;" horiz-adv-x="1349" d="M102 33l183 1313q6 45 27.5 67.5t70.5 22.5h43q39 0 53.5 -16.5t32.5 -57.5l383 -866l125 -293h6l168 1200q4 20 13.5 26.5t29.5 6.5h80q18 0 25.5 -6.5t3.5 -26.5l-185 -1313q-6 -43 -25.5 -66.5t-68.5 -23.5h-45q-39 0 -54.5 17.5t-31.5 58.5l-408 915l-102 240h-6 l-168 -1198q-4 -20 -11.5 -26.5t-27.5 -6.5h-80q-16 0 -25.5 6t-5.5 27zM514 1606.5q-2 5.5 6 17.5q43 61 98.5 95t120.5 34q33 0 64 -11t59.5 -25.5t56 -26t56.5 -11.5q68 0 110 62q10 12 14.5 14t14.5 -2l66 -24q23 -8 14 -27q-41 -78 -93 -110.5t-120 -32.5 q-35 0 -66.5 12t-62.5 25.5t-60.5 25.5t-60.5 12q-61 0 -117 -61q-8 -10 -14 -14.5t-16 4.5l-58 32q-10 6 -12 11.5z" />
<glyph unicode="&#xd2;" horiz-adv-x="1384" d="M143 514q0 223 54.5 398t147.5 296t219.5 184.5t271.5 63.5q248 0 374.5 -144.5t126.5 -408.5q0 -190 -45 -358t-133 -294t-219 -200t-301 -74q-248 0 -372 142.5t-124 394.5zM297 532q0 -92 18.5 -167.5t60.5 -130t110.5 -85t166.5 -30.5q137 0 238.5 65.5t167 175 t98.5 250t33 289.5q0 88 -18.5 164t-61.5 132t-113 88t-170 32q-139 0 -238.5 -67.5t-165 -177t-96 -250t-30.5 -288.5zM610 1741l72 92q10 12 19.5 10t17.5 -10l258 -219q20 -16 6 -33l-31 -45q-8 -10 -16 -10t-18 6l-306 176q-18 12 -2 33z" />
<glyph unicode="&#xd3;" horiz-adv-x="1384" d="M143 514q0 223 54.5 398t147.5 296t219.5 184.5t271.5 63.5q248 0 374.5 -144.5t126.5 -408.5q0 -190 -45 -358t-133 -294t-219 -200t-301 -74q-248 0 -372 142.5t-124 394.5zM297 532q0 -92 18.5 -167.5t60.5 -130t110.5 -85t166.5 -30.5q137 0 238.5 65.5t167 175 t98.5 250t33 289.5q0 88 -18.5 164t-61.5 132t-113 88t-170 32q-139 0 -238.5 -67.5t-165 -177t-96 -250t-30.5 -288.5zM768 1599.5q0 6.5 14 16.5l301 199q10 8 19.5 9t17.5 -12l56 -98q16 -20 -9 -31l-338 -153q-23 -10 -34 8l-23 45q-4 10 -4 16.5z" />
<glyph unicode="&#xd4;" horiz-adv-x="1384" d="M143 514q0 223 54.5 398t147.5 296t219.5 184.5t271.5 63.5q248 0 374.5 -144.5t126.5 -408.5q0 -190 -45 -358t-133 -294t-219 -200t-301 -74q-248 0 -372 142.5t-124 394.5zM297 532q0 -92 18.5 -167.5t60.5 -130t110.5 -85t166.5 -30.5q137 0 238.5 65.5t167 175 t98.5 250t33 289.5q0 88 -18.5 164t-61.5 132t-113 88t-170 32q-139 0 -238.5 -67.5t-165 -177t-96 -250t-30.5 -288.5zM551 1563q-12 14 4 28l266 199q45 33 78 33q16 0 33.5 -5.5t40.5 -27.5l203 -203q14 -12 -2 -33l-29 -28q-8 -10 -15.5 -8t-19.5 8l-233 145l-271 -145 q-20 -10 -31 4z" />
<glyph unicode="&#xd5;" horiz-adv-x="1384" d="M143 514q0 223 54.5 398t147.5 296t219.5 184.5t271.5 63.5q248 0 374.5 -144.5t126.5 -408.5q0 -190 -45 -358t-133 -294t-219 -200t-301 -74q-248 0 -372 142.5t-124 394.5zM297 532q0 -92 18.5 -167.5t60.5 -130t110.5 -85t166.5 -30.5q137 0 238.5 65.5t167 175 t98.5 250t33 289.5q0 88 -18.5 164t-61.5 132t-113 88t-170 32q-139 0 -238.5 -67.5t-165 -177t-96 -250t-30.5 -288.5zM547 1608.5q-2 5.5 6 17.5q43 61 98.5 95t120.5 34q33 0 63.5 -11t59.5 -25.5t56.5 -26t56.5 -11.5q68 0 110 62q10 12 14.5 14t14.5 -2l65 -24 q23 -8 15 -27q-41 -78 -93 -110.5t-120 -32.5q-35 0 -67 12t-62.5 25.5t-60 25.5t-60.5 12q-61 0 -117 -61q-8 -10 -14 -14.5t-17 4.5l-57 32q-10 6 -12 11.5z" />
<glyph unicode="&#xd6;" horiz-adv-x="1384" d="M143 514q0 223 54.5 398t147.5 296t219.5 184.5t271.5 63.5q248 0 374.5 -144.5t126.5 -408.5q0 -190 -45 -358t-133 -294t-219 -200t-301 -74q-248 0 -372 142.5t-124 394.5zM297 532q0 -92 18.5 -167.5t60.5 -130t110.5 -85t166.5 -30.5q137 0 238.5 65.5t167 175 t98.5 250t33 289.5q0 88 -18.5 164t-61.5 132t-113 88t-170 32q-139 0 -238.5 -67.5t-165 -177t-96 -250t-30.5 -288.5zM616 1630q0 41 34 74t75 33q35 0 58.5 -24.5t23.5 -59.5q-2 -43 -37 -76t-74 -33q-35 0 -58.5 25.5t-21.5 60.5zM965 1630q0 41 33.5 74t74.5 33 q35 0 59.5 -24.5t24.5 -59.5q-2 -41 -37 -75t-71 -34q-37 0 -61.5 25.5t-22.5 60.5z" />
<glyph unicode="&#xd7;" d="M127 340q0 8 14 20l383 345l-282 339q-16 18 6 37l71 66q10 10 18.5 11t18.5 -9l283 -342l381 346q14 10 22.5 9t16.5 -11l57 -70q8 -10 8 -18t-12 -21l-383 -344l279 -336q16 -20 -9 -36l-67 -66q-14 -10 -21.5 -11t-17.5 9l-279 338l-383 -346q-20 -18 -34 2l-60 70 q-10 10 -10 18z" />
<glyph unicode="&#xd8;" horiz-adv-x="1384" d="M98 14q-14 12 4 33l119 135q-78 133 -78 332q0 223 54.5 398t147.5 296t219.5 184.5t271.5 63.5q242 0 370 -145l125 143q18 18 37 4l29 -24q6 -10 6 -15.5t-10 -17.5l-138 -154q82 -135 82 -344q0 -190 -45 -358t-133 -294t-219 -200t-301 -74q-246 0 -371 142 l-108 -123q-10 -12 -16.5 -11t-16.5 9zM297 532q0 -63 8 -118.5t29 -102.5l772 883q-43 57 -112 89t-167 32q-139 0 -238.5 -67.5t-165 -177t-96 -250t-30.5 -288.5zM371 240q41 -57 109.5 -89t172.5 -32q137 0 238.5 65.5t167 175t98.5 249.5t33 290q0 63 -9.5 120.5 t-31.5 104.5z" />
<glyph unicode="&#xd9;" horiz-adv-x="1343" d="M172 306q-12 122 12 306l109 789q2 20 12 26.5t27 6.5h88q20 0 26.5 -6.5t4.5 -26.5l-111 -776q-18 -133 -17 -229.5t39.5 -158t121.5 -91t231 -29.5q35 0 117.5 5t177.5 23l178 1256q2 20 11 26.5t26 6.5h90q20 0 24 -6.5t0 -26.5l-174 -1241q-10 -63 -42.5 -103.5 t-108.5 -54.5t-169 -20.5t-157 -6.5q-170 0 -278.5 31t-167 104.5t-70.5 195.5zM602 1741l72 92q10 12 19 10t18 -10l258 -219q20 -16 6 -33l-31 -45q-8 -10 -16 -10t-19 6l-305 176q-18 12 -2 33z" />
<glyph unicode="&#xda;" horiz-adv-x="1343" d="M172 306q-12 122 12 306l109 789q2 20 12 26.5t27 6.5h88q20 0 26.5 -6.5t4.5 -26.5l-111 -776q-18 -133 -17 -229.5t39.5 -158t121.5 -91t231 -29.5q35 0 117.5 5t177.5 23l178 1256q2 20 11 26.5t26 6.5h90q20 0 24 -6.5t0 -26.5l-174 -1241q-10 -63 -42.5 -103.5 t-108.5 -54.5t-169 -20.5t-157 -6.5q-170 0 -278.5 31t-167 104.5t-70.5 195.5zM727 1599.5q0 6.5 14 16.5l301 199q10 8 19.5 9t17.5 -12l56 -98q16 -20 -9 -31l-338 -153q-23 -10 -34 8l-23 45q-4 10 -4 16.5z" />
<glyph unicode="&#xdb;" horiz-adv-x="1343" d="M172 306q-12 122 12 306l109 789q2 20 12 26.5t27 6.5h88q20 0 26.5 -6.5t4.5 -26.5l-111 -776q-18 -133 -17 -229.5t39.5 -158t121.5 -91t231 -29.5q35 0 117.5 5t177.5 23l178 1256q2 20 11 26.5t26 6.5h90q20 0 24 -6.5t0 -26.5l-174 -1241q-10 -63 -42.5 -103.5 t-108.5 -54.5t-169 -20.5t-157 -6.5q-170 0 -278.5 31t-167 104.5t-70.5 195.5zM526 1563q-12 14 4 28l267 199q45 33 77 33q16 0 34 -5.5t40 -27.5l203 -203q14 -12 -2 -33l-29 -28q-8 -10 -15 -8t-20 8l-233 145l-270 -145q-20 -10 -31 4z" />
<glyph unicode="&#xdc;" horiz-adv-x="1343" d="M172 306q-12 122 12 306l109 789q2 20 12 26.5t27 6.5h88q20 0 26.5 -6.5t4.5 -26.5l-111 -776q-18 -133 -17 -229.5t39.5 -158t121.5 -91t231 -29.5q35 0 117.5 5t177.5 23l178 1256q2 20 11 26.5t26 6.5h90q20 0 24 -6.5t0 -26.5l-174 -1241q-10 -63 -42.5 -103.5 t-108.5 -54.5t-169 -20.5t-157 -6.5q-170 0 -278.5 31t-167 104.5t-70.5 195.5zM575 1614q0 41 34 73.5t75 32.5q35 0 58.5 -24.5t23.5 -59.5q-2 -43 -37 -75.5t-74 -32.5q-35 0 -58.5 25.5t-21.5 60.5zM924 1614q0 41 33.5 73.5t74.5 32.5q35 0 59.5 -24.5t24.5 -59.5 q-2 -41 -37 -74.5t-71 -33.5q-37 0 -61.5 25.5t-22.5 60.5z" />
<glyph unicode="&#xdd;" horiz-adv-x="1085" d="M170 1415q-4 6 1 13.5t15 7.5h115q14 0 19.5 -4.5t11.5 -18.5l143 -379l111 -307h8l201 317l243 369q16 23 39 23h123q10 0 11 -8.5t-3 -12.5l-557 -833l-78 -555q-2 -16 -7 -21.5t-21 -5.5h-96q-14 0 -20.5 5t-4.5 22l78 553zM592 1599.5q0 6.5 14 16.5l301 199 q10 8 19.5 9t17.5 -12l55 -98q16 -20 -8 -31l-338 -153q-23 -10 -35 8l-22 45q-4 10 -4 16.5z" />
<glyph unicode="&#xde;" horiz-adv-x="1183" d="M100 33l195 1374q4 16 10 21.5t21 5.5h100q16 0 22.5 -5.5t2.5 -21.5l-33 -240h379q176 0 275 -103t99 -273q0 -68 -20.5 -151t-75.5 -153.5t-152.5 -119t-248.5 -48.5h-381l-41 -286q-2 -20 -9 -26.5t-28 -6.5h-82q-16 0 -25.5 6t-7.5 27zM313 461h363q160 0 247 86 t87 235q0 43 -12.5 86t-42 78t-80 56.5t-125.5 21.5h-355q-6 -39 -17 -118t-23.5 -165t-24 -163.5t-17.5 -116.5z" />
<glyph unicode="&#xdf;" horiz-adv-x="1087" d="M84 27l139 1001q29 217 143.5 335t297.5 118q100 0 168.5 -29t111.5 -75t61.5 -104.5t18.5 -119.5q0 -37 -10 -82t-35 -90t-66 -85t-102 -65l-2 -4q104 -39 152.5 -134t48.5 -212q0 -109 -32 -205t-98.5 -168.5t-170 -114.5t-246.5 -38q-14 2 -17.5 4t-3.5 16l11 74 q4 23 24 23q102 2 176 34.5t122 86t70.5 126t22.5 158.5q0 55 -13 105.5t-43 88.5t-76.5 59.5t-114.5 21.5q-29 0 -45.5 7t-10.5 40l6 35q4 27 16.5 35t37.5 8q59 0 106 23.5t80 61t50.5 85t17.5 96.5q0 39 -11.5 78t-38 69.5t-67.5 49t-100 18.5q-76 0 -127.5 -30t-85 -75 t-52 -99t-24.5 -103l-146 -1024q-2 -16 -8 -21.5t-20 -5.5h-90q-14 0 -20.5 5t-4.5 22z" />
<glyph unicode="&#xe0;" horiz-adv-x="1099" d="M102 375q0 154 33 286t101.5 229t175.5 152.5t254 55.5q72 0 165 -9.5t193 -37.5q29 -10 33 -24.5t0 -37.5q-35 -236 -65.5 -457t-59.5 -450q-2 -31 -35 -43q-90 -35 -196.5 -48.5t-194.5 -13.5q-109 0 -185.5 30t-125 83t-71 126t-22.5 159zM250 389q0 -141 72.5 -212 t226.5 -71q47 0 115.5 8.5t128.5 32.5q27 205 53 396.5t57 390.5q-59 20 -126.5 27.5t-117.5 7.5q-80 0 -153.5 -31t-131 -100.5t-91 -179t-33.5 -269.5zM438 1509q-16 16 8 29l113 53q14 6 20.5 3t12.5 -13l182 -305q12 -20 -6 -31l-43 -28q-18 -12 -39 10z" />
<glyph unicode="&#xe1;" horiz-adv-x="1099" d="M102 375q0 154 33 286t101.5 229t175.5 152.5t254 55.5q72 0 165 -9.5t193 -37.5q29 -10 33 -24.5t0 -37.5q-35 -236 -65.5 -457t-59.5 -450q-2 -31 -35 -43q-90 -35 -196.5 -48.5t-194.5 -13.5q-109 0 -185.5 30t-125 83t-71 126t-22.5 159zM250 389q0 -141 72.5 -212 t226.5 -71q47 0 115.5 8.5t128.5 32.5q27 205 53 396.5t57 390.5q-59 20 -126.5 27.5t-117.5 7.5q-80 0 -153.5 -31t-131 -100.5t-91 -179t-33.5 -269.5zM582 1255l174 306q6 10 13 17t24 3l112 -31q27 -6 8 -28l-243 -301q-18 -20 -37 -13l-43 19q-20 8 -8 28z" />
<glyph unicode="&#xe2;" horiz-adv-x="1099" d="M102 375q0 154 33 286t101.5 229t175.5 152.5t254 55.5q72 0 165 -9.5t193 -37.5q29 -10 33 -24.5t0 -37.5q-35 -236 -65.5 -457t-59.5 -450q-2 -31 -35 -43q-90 -35 -196.5 -48.5t-194.5 -13.5q-109 0 -185.5 30t-125 83t-71 126t-22.5 159zM250 389q0 -141 72.5 -212 t226.5 -71q47 0 115.5 8.5t128.5 32.5q27 205 53 396.5t57 390.5q-59 20 -126.5 27.5t-117.5 7.5q-80 0 -153.5 -31t-131 -100.5t-91 -179t-33.5 -269.5zM375 1239q-12 12 2 27l282 258q43 37 78 37q25 0 40.5 -7.5t31.5 -29.5l203 -256q16 -23 -4 -39l-33 -27 q-16 -10 -35 2l-223 203l-283 -205q-18 -12 -33 4z" />
<glyph unicode="&#xe3;" horiz-adv-x="1099" d="M102 375q0 154 33 286t101.5 229t175.5 152.5t254 55.5q72 0 165 -9.5t193 -37.5q29 -10 33 -24.5t0 -37.5q-35 -236 -65.5 -457t-59.5 -450q-2 -31 -35 -43q-90 -35 -196.5 -48.5t-194.5 -13.5q-109 0 -185.5 30t-125 83t-71 126t-22.5 159zM250 389q0 -141 72.5 -212 t226.5 -71q47 0 115.5 8.5t128.5 32.5q27 205 53 396.5t57 390.5q-59 20 -126.5 27.5t-117.5 7.5q-80 0 -153.5 -31t-131 -100.5t-91 -179t-33.5 -269.5zM360.5 1332q-2.5 5 6.5 18q43 61 98 95t121 34q33 0 63.5 -11.5t59 -26t56.5 -25.5t56 -11q68 0 111 61q10 12 14 14.5 t15 -1.5l65 -25q23 -8 14 -27q-41 -78 -93 -110.5t-120 -32.5q-35 0 -66.5 12.5t-62 25.5t-60.5 25.5t-60 12.5q-61 0 -117 -62q-8 -10 -14.5 -14t-16.5 4l-57 33q-10 6 -12.5 11z" />
<glyph unicode="&#xe4;" horiz-adv-x="1099" d="M102 375q0 154 33 286t101.5 229t175.5 152.5t254 55.5q72 0 165 -9.5t193 -37.5q29 -10 33 -24.5t0 -37.5q-35 -236 -65.5 -457t-59.5 -450q-2 -31 -35 -43q-90 -35 -196.5 -48.5t-194.5 -13.5q-109 0 -185.5 30t-125 83t-71 126t-22.5 159zM250 389q0 -141 72.5 -212 t226.5 -71q47 0 115.5 8.5t128.5 32.5q27 205 53 396.5t57 390.5q-59 20 -126.5 27.5t-117.5 7.5q-80 0 -153.5 -31t-131 -100.5t-91 -179t-33.5 -269.5zM453 1366q0 41 33.5 74t74.5 33q35 0 58.5 -25t23.5 -59q-2 -43 -37 -76t-74 -33q-35 0 -58 25.5t-21 60.5zM801 1366 q0 41 33.5 74t74.5 33q35 0 59.5 -25t24.5 -59q-2 -41 -36.5 -75t-71.5 -34t-61.5 25.5t-22.5 60.5z" />
<glyph unicode="&#xe5;" horiz-adv-x="1099" d="M102 375q0 154 33 286t101.5 229t175.5 152.5t254 55.5q72 0 165 -9.5t193 -37.5q29 -10 33 -24.5t0 -37.5q-35 -236 -65.5 -457t-59.5 -450q-2 -31 -35 -43q-90 -35 -196.5 -48.5t-194.5 -13.5q-109 0 -185.5 30t-125 83t-71 126t-22.5 159zM250 389q0 -141 72.5 -212 t226.5 -71q47 0 115.5 8.5t128.5 32.5q27 205 53 396.5t57 390.5q-59 20 -126.5 27.5t-117.5 7.5q-80 0 -153.5 -31t-131 -100.5t-91 -179t-33.5 -269.5zM563 1362q0 45 16.5 83t45 66.5t66.5 45t81 16.5q72 0 115 -42t43 -112q0 -43 -16.5 -81t-45 -65.5t-66.5 -44 t-79 -16.5q-70 0 -115 42t-45 108zM639 1374q0 -41 25.5 -65.5t66.5 -24.5q49 0 86 36t37 89q0 41 -25.5 65.5t-66.5 24.5q-49 0 -86 -36t-37 -89z" />
<glyph unicode="&#xe6;" horiz-adv-x="1660" d="M74 248q0 90 28.5 163.5t88 127t153.5 83t223 29.5q100 0 215 -20q10 41 18.5 80t8.5 63q0 98 -58.5 144.5t-175.5 46.5q-66 0 -143.5 -12.5t-136.5 -30.5q-14 -4 -20.5 -3t-10.5 15l-20 76q-6 18 20 30q76 29 170 43.5t176 14.5q129 0 209 -47t103 -131q141 178 372 178 q98 0 165 -27t106 -68.5t55 -91t16 -94.5q0 -184 -135 -262t-389 -78q-47 0 -98 3t-105 12q-4 -25 -6 -49.5t-2 -47.5q0 -152 66.5 -219t203.5 -67q68 0 129.5 17t110.5 40q20 8 31 -8l37 -72q12 -25 -17 -35q-74 -41 -157.5 -57.5t-161.5 -16.5q-197 0 -289 105 q-104 -55 -223 -80t-215 -25q-111 0 -178.5 26t-104.5 64.5t-48 87t-11 93.5zM221 266q0 -88 57.5 -125t157.5 -37q25 0 66 3.5t90 12.5t101 25.5t100 42.5q0 4 -2 7q-18 45 -26.5 90t-8.5 104q0 29 2 59.5t6 65.5q-59 8 -110.5 13t-98.5 5q-160 0 -247 -61t-87 -205z M926 606q47 -6 98 -9t92 -3q201 0 291 45t94 156q0 33 -10 64.5t-34.5 56t-66 40t-104.5 15.5q-150 0 -242 -94.5t-118 -270.5z" />
<glyph unicode="&#xe7;" horiz-adv-x="940" d="M104 401q0 158 36 286t102.5 219t161 141.5t210.5 50.5q78 0 164 -17.5t148 -54.5q10 -8 11 -15t-5 -22l-33 -69q-6 -12 -13 -15.5t-24 4.5q-47 23 -112.5 39.5t-131.5 16.5q-98 0 -167.5 -49.5t-114.5 -128t-65.5 -178t-20.5 -199.5q0 -66 14.5 -121.5t48 -95t86 -62 t129.5 -22.5q72 0 141.5 17t118.5 40q16 8 21.5 4t9.5 -14l33 -70q12 -23 -12 -37q-78 -41 -162 -55t-158 -17l-41 -88q102 -6 140 -51t38 -98q0 -31 -13 -60.5t-39.5 -54t-68.5 -40t-100 -15.5q-51 0 -99 11t-75 26q-8 4 -10 9t4 17l18 37q8 16 14.5 15.5t16.5 -4.5 q29 -10 63.5 -17.5t63.5 -7.5q115 0 115 84q0 39 -31 57.5t-84 18.5q-14 0 -24.5 -1t-18.5 5q-20 16 -4 45l53 117q-160 18 -247 122.5t-87 296.5z" />
<glyph unicode="&#xe8;" horiz-adv-x="1001" d="M102 391q0 180 41 312.5t112 220.5t168 131t212 43q98 0 164.5 -27t105.5 -68.5t55.5 -91t16.5 -94.5q0 -180 -126 -261t-390 -81q-47 0 -101.5 3t-109.5 11q-6 -49 -6 -92q-4 -141 61.5 -214.5t206.5 -73.5q66 0 128 16t112 41q20 8 30 -8l35 -72q10 -20 -14 -35 q-76 -41 -159 -57.5t-161 -16.5q-190 0 -285.5 98.5t-95.5 315.5zM266 604q47 -6 98.5 -9t92.5 -3q211 0 298 50t87 161q0 33 -11.5 62.5t-37 53t-66.5 38t-102 14.5q-147 0 -239.5 -95.5t-119.5 -271.5zM416 1509q-16 16 8 29l113 53q14 6 20 3t12 -13l183 -305 q12 -20 -7 -31l-43 -28q-18 -12 -38 10z" />
<glyph unicode="&#xe9;" horiz-adv-x="1001" d="M102 391q0 180 41 312.5t112 220.5t168 131t212 43q98 0 164.5 -27t105.5 -68.5t55.5 -91t16.5 -94.5q0 -180 -126 -261t-390 -81q-47 0 -101.5 3t-109.5 11q-6 -49 -6 -92q-4 -141 61.5 -214.5t206.5 -73.5q66 0 128 16t112 41q20 8 30 -8l35 -72q10 -20 -14 -35 q-76 -41 -159 -57.5t-161 -16.5q-190 0 -285.5 98.5t-95.5 315.5zM266 604q47 -6 98.5 -9t92.5 -3q211 0 298 50t87 161q0 33 -11.5 62.5t-37 53t-66.5 38t-102 14.5q-147 0 -239.5 -95.5t-119.5 -271.5zM586 1255l174 306q6 10 13 17t24 3l112 -31q27 -6 9 -28l-244 -301 q-18 -20 -37 -13l-43 19q-20 8 -8 28z" />
<glyph unicode="&#xea;" horiz-adv-x="1001" d="M102 391q0 180 41 312.5t112 220.5t168 131t212 43q98 0 164.5 -27t105.5 -68.5t55.5 -91t16.5 -94.5q0 -180 -126 -261t-390 -81q-47 0 -101.5 3t-109.5 11q-6 -49 -6 -92q-4 -141 61.5 -214.5t206.5 -73.5q66 0 128 16t112 41q20 8 30 -8l35 -72q10 -20 -14 -35 q-76 -41 -159 -57.5t-161 -16.5q-190 0 -285.5 98.5t-95.5 315.5zM266 604q47 -6 98.5 -9t92.5 -3q211 0 298 50t87 161q0 33 -11.5 62.5t-37 53t-66.5 38t-102 14.5q-147 0 -239.5 -95.5t-119.5 -271.5zM352 1239q-12 12 2 27l283 258q43 37 78 37q25 0 40 -7.5t31 -29.5 l203 -256q16 -23 -4 -39l-33 -27q-16 -10 -34 2l-224 203l-282 -205q-18 -12 -33 4z" />
<glyph unicode="&#xeb;" horiz-adv-x="1001" d="M102 391q0 180 41 312.5t112 220.5t168 131t212 43q98 0 164.5 -27t105.5 -68.5t55.5 -91t16.5 -94.5q0 -180 -126 -261t-390 -81q-47 0 -101.5 3t-109.5 11q-6 -49 -6 -92q-4 -141 61.5 -214.5t206.5 -73.5q66 0 128 16t112 41q20 8 30 -8l35 -72q10 -20 -14 -35 q-76 -41 -159 -57.5t-161 -16.5q-190 0 -285.5 98.5t-95.5 315.5zM266 604q47 -6 98.5 -9t92.5 -3q211 0 298 50t87 161q0 33 -11.5 62.5t-37 53t-66.5 38t-102 14.5q-147 0 -239.5 -95.5t-119.5 -271.5zM424 1364q0 41 33.5 73.5t74.5 32.5q35 0 58.5 -24.5t23.5 -59.5 q-2 -43 -36.5 -75.5t-73.5 -32.5q-35 0 -58.5 25.5t-21.5 60.5zM772 1364q0 41 34 73.5t75 32.5q35 0 59.5 -24.5t24.5 -59.5q-2 -41 -37 -74.5t-72 -33.5t-61.5 25.5t-22.5 60.5z" />
<glyph unicode="&#xec;" horiz-adv-x="512" d="M109 1509q-16 16 8 29l112 53q14 6 20.5 3t12.5 -13l182 -305q12 -20 -6 -31l-43 -28q-18 -12 -39 10zM133 18v7l143 1024q4 16 10.5 21t20.5 5h90q25 0 25 -16v-10l-146 -1024q-2 -16 -7 -20.5t-21 -4.5h-90q-25 0 -25 18z" />
<glyph unicode="&#xed;" horiz-adv-x="512" d="M133 18v7l143 1024q4 16 10.5 21t20.5 5h90q25 0 25 -16v-10l-146 -1024q-2 -16 -7 -20.5t-21 -4.5h-90q-25 0 -25 18zM311 1255l174 306q6 10 13.5 17t23.5 3l113 -31q27 -6 8 -28l-244 -301q-18 -20 -37 -13l-43 19q-20 8 -8 28z" />
<glyph unicode="&#xee;" horiz-adv-x="512" d="M53 1231q-12 12 2 26l283 259q43 37 78 36q25 0 40 -7t31 -29l203 -256q16 -23 -4 -39l-33 -27q-16 -10 -35 2l-223 203l-282 -205q-18 -12 -33 4zM133 18v7l143 1024q4 16 10.5 21t20.5 5h90q25 0 25 -16v-10l-146 -1024q-2 -16 -7 -20.5t-21 -4.5h-90q-25 0 -25 18z " />
<glyph unicode="&#xef;" horiz-adv-x="512" d="M121 1360q0 41 33.5 73.5t74.5 32.5q35 0 58.5 -24.5t23.5 -59.5q-2 -43 -36.5 -75.5t-73.5 -32.5q-35 0 -58.5 25.5t-21.5 60.5zM133 18v7l143 1024q4 16 10.5 21t20.5 5h90q25 0 25 -16v-10l-146 -1024q-2 -16 -7 -20.5t-21 -4.5h-90q-25 0 -25 18zM469 1360 q0 41 34 73.5t75 32.5q35 0 59.5 -24.5t24.5 -59.5q-2 -41 -37 -74.5t-72 -33.5t-61.5 25.5t-22.5 60.5z" />
<glyph unicode="&#xf0;" horiz-adv-x="1075" d="M96 360q0 96 29 205t91.5 200t162.5 150.5t244 59.5q68 0 131 -18.5t116 -51.5l9 4q-14 92 -54.5 178.5t-95.5 149.5l-147 -115q-10 -8 -15.5 -9t-15.5 9l-27 33q-12 14 6 29l144 112q-74 68 -170 127q-16 10 -14 18.5t6 14.5l36 49q16 23 24.5 21t18.5 -8 q113 -61 201 -140l156 121q10 10 16 11t17 -11l24 -31q10 -10 8 -16t-14 -16l-152 -119q102 -117 148.5 -265.5t46.5 -320.5q0 -45 -6 -116.5t-25.5 -155.5t-56.5 -169t-98.5 -153.5t-150.5 -111.5t-214 -43q-113 0 -185.5 32.5t-115.5 86t-60.5 121t-17.5 138.5zM242 373 q0 -51 10 -99.5t37.5 -86t77 -61.5t125.5 -24q82 0 142 29t104 77t72 109.5t45 128t23.5 132t6.5 120.5v30.5t-2 25.5q-66 57 -137 78.5t-128 21.5q-115 0 -187.5 -51t-114.5 -125t-58 -157t-16 -148z" />
<glyph unicode="&#xf1;" horiz-adv-x="1101" d="M82 27l127 915q18 117 127 135q25 4 58.5 8.5t70.5 7.5t71.5 4t59.5 1q129 0 215 -29t135 -90t62.5 -159.5t-7.5 -237.5l-77 -555q-2 -16 -8.5 -21.5t-22.5 -5.5h-90q-14 0 -20.5 5t-4.5 22l78 546q14 98 10 172t-34.5 122t-94 73t-170.5 25q-25 0 -83 -3.5t-130 -17.5 l-129 -917q-4 -16 -9 -21.5t-19 -5.5h-91q-14 0 -21 5t-3 22zM307 1332q-2 5 6 18q43 61 98.5 95t120.5 34q33 0 64 -11.5t59.5 -26t56 -25.5t56.5 -11q68 0 111 61q10 12 14 14.5t14 -1.5l66 -25q23 -8 14 -27q-41 -78 -93 -110.5t-120 -32.5q-35 0 -66.5 12.5t-62.5 25.5 t-60.5 25.5t-60.5 12.5q-61 0 -116 -62q-8 -10 -14.5 -14t-16.5 4l-58 33q-10 6 -12 11z" />
<glyph unicode="&#xf2;" horiz-adv-x="1091" d="M102 391q0 172 42 304t116 221.5t171 135.5t208 46q188 0 292.5 -108.5t104.5 -315.5q0 -162 -37.5 -291t-108.5 -219t-171.5 -138.5t-222.5 -48.5q-190 0 -292 105.5t-102 308.5zM248 408q0 -137 61.5 -221.5t202.5 -84.5q109 0 181.5 54.5t115.5 138.5t61.5 184.5 t18.5 192.5q0 63 -13.5 117.5t-44 94.5t-80.5 63.5t-124 23.5q-100 0 -172 -49.5t-118 -129t-67.5 -180t-21.5 -204.5zM432 1509q-16 16 8 29l113 53q14 6 20.5 3t12.5 -13l182 -305q12 -20 -6 -31l-43 -28q-18 -12 -39 10z" />
<glyph unicode="&#xf3;" horiz-adv-x="1091" d="M102 391q0 172 42 304t116 221.5t171 135.5t208 46q188 0 292.5 -108.5t104.5 -315.5q0 -162 -37.5 -291t-108.5 -219t-171.5 -138.5t-222.5 -48.5q-190 0 -292 105.5t-102 308.5zM248 408q0 -137 61.5 -221.5t202.5 -84.5q109 0 181.5 54.5t115.5 138.5t61.5 184.5 t18.5 192.5q0 63 -13.5 117.5t-44 94.5t-80.5 63.5t-124 23.5q-100 0 -172 -49.5t-118 -129t-67.5 -180t-21.5 -204.5zM600 1255l174 306q6 10 13.5 17t23.5 3l113 -31q27 -6 8 -28l-244 -301q-18 -20 -37 -13l-43 19q-20 8 -8 28z" />
<glyph unicode="&#xf4;" horiz-adv-x="1091" d="M102 391q0 172 42 304t116 221.5t171 135.5t208 46q188 0 292.5 -108.5t104.5 -315.5q0 -162 -37.5 -291t-108.5 -219t-171.5 -138.5t-222.5 -48.5q-190 0 -292 105.5t-102 308.5zM248 408q0 -137 61.5 -221.5t202.5 -84.5q109 0 181.5 54.5t115.5 138.5t61.5 184.5 t18.5 192.5q0 63 -13.5 117.5t-44 94.5t-80.5 63.5t-124 23.5q-100 0 -172 -49.5t-118 -129t-67.5 -180t-21.5 -204.5zM356 1239q-12 12 2 27l283 258q43 37 78 37q25 0 40 -7.5t32 -29.5l202 -256q16 -23 -4 -39l-33 -27q-16 -10 -34 2l-224 203l-282 -205q-18 -12 -33 4z " />
<glyph unicode="&#xf5;" horiz-adv-x="1091" d="M102 391q0 172 42 304t116 221.5t171 135.5t208 46q188 0 292.5 -108.5t104.5 -315.5q0 -162 -37.5 -291t-108.5 -219t-171.5 -138.5t-222.5 -48.5q-190 0 -292 105.5t-102 308.5zM248 408q0 -137 61.5 -221.5t202.5 -84.5q109 0 181.5 54.5t115.5 138.5t61.5 184.5 t18.5 192.5q0 63 -13.5 117.5t-44 94.5t-80.5 63.5t-124 23.5q-100 0 -172 -49.5t-118 -129t-67.5 -180t-21.5 -204.5zM354.5 1326q-2.5 5 5.5 17q43 61 98.5 95.5t121.5 34.5q33 0 63.5 -11.5t59 -26t56 -25.5t56.5 -11q68 0 111 61q10 12 14 14.5t14 -1.5l66 -25 q23 -8 14 -27q-41 -78 -93 -110.5t-120 -32.5q-35 0 -66.5 12.5t-62 25.5t-60.5 25.5t-61 12.5q-61 0 -116 -62q-8 -10 -14.5 -14t-16.5 4l-57 33q-10 6 -12.5 11z" />
<glyph unicode="&#xf6;" horiz-adv-x="1091" d="M102 391q0 172 42 304t116 221.5t171 135.5t208 46q188 0 292.5 -108.5t104.5 -315.5q0 -162 -37.5 -291t-108.5 -219t-171.5 -138.5t-222.5 -48.5q-190 0 -292 105.5t-102 308.5zM248 408q0 -137 61.5 -221.5t202.5 -84.5q109 0 181.5 54.5t115.5 138.5t61.5 184.5 t18.5 192.5q0 63 -13.5 117.5t-44 94.5t-80.5 63.5t-124 23.5q-100 0 -172 -49.5t-118 -129t-67.5 -180t-21.5 -204.5zM414 1360q0 41 33.5 73.5t74.5 32.5q35 0 58.5 -24.5t23.5 -59.5q-2 -43 -37 -75.5t-73 -32.5q-35 0 -58.5 25.5t-21.5 60.5zM762 1360q0 41 33.5 73.5 t74.5 32.5q35 0 59.5 -24.5t24.5 -59.5q-2 -41 -36.5 -74.5t-71.5 -33.5t-61.5 25.5t-22.5 60.5z" />
<glyph unicode="&#xf7;" d="M143 659l15 91q2 14 7 21t21 7h899q16 0 19.5 -7t1.5 -21l-12 -91q-4 -16 -9.5 -22t-21.5 -6h-897q-16 0 -20.5 6t-2.5 22zM453 297q0 59 41 101t100 42q47 0 74.5 -28.5t27.5 -75.5q0 -59 -41 -100t-96 -41q-47 0 -76.5 27.5t-29.5 74.5zM561 1057q0 59 40 101t99 42 q47 0 76 -28.5t29 -73.5q0 -59 -42 -102.5t-97 -43.5q-47 0 -76 29t-29 76z" />
<glyph unicode="&#xf8;" horiz-adv-x="1091" d="M53 27q-10 14 4 28l95 101q-49 92 -50 235q0 172 42 304t116 221.5t171 135.5t208 46q199 0 301 -121l100 102q10 10 15.5 9t13.5 -7l27 -28q4 -6 4 -11.5t-8 -15.5l-109 -113q53 -96 53 -239q0 -162 -37.5 -291t-108.5 -219t-171.5 -138.5t-222.5 -48.5q-199 0 -301 115 l-89 -90q-16 -16 -26 -2zM248 408q0 -80 20 -136l572 600q-31 45 -83 72t-130 27q-100 0 -172 -49.5t-118 -129t-67.5 -180t-21.5 -204.5zM299 201q63 -98 213 -99q109 0 181.5 54.5t115.5 138.5t61.5 184.5t18.5 192.5q0 72 -19 127z" />
<glyph unicode="&#xf9;" horiz-adv-x="1089" d="M134 247q-9 95 11 234l78 570q4 16 10.5 21t22.5 5h90q12 0 19.5 -5t3.5 -21l-78 -557q-16 -104 -14 -177t30.5 -118t90 -65.5t165.5 -20.5q23 0 84.5 3t132.5 17l129 918q4 16 9.5 21t21.5 5h92q14 0 20.5 -5t4.5 -21l-129 -918q-10 -59 -40 -92t-89 -43q-29 -4 -65 -8 t-72.5 -6t-69.5 -3t-57 -1q-133 0 -217.5 26.5t-129.5 86t-54 154.5zM418 1509q-16 16 8 29l113 53q14 6 20 3t12 -13l183 -305q12 -20 -6 -31l-43 -28q-18 -12 -39 10z" />
<glyph unicode="&#xfa;" horiz-adv-x="1089" d="M134 247q-9 95 11 234l78 570q4 16 10.5 21t22.5 5h90q12 0 19.5 -5t3.5 -21l-78 -557q-16 -104 -14 -177t30.5 -118t90 -65.5t165.5 -20.5q23 0 84.5 3t132.5 17l129 918q4 16 9.5 21t21.5 5h92q14 0 20.5 -5t4.5 -21l-129 -918q-10 -59 -40 -92t-89 -43q-29 -4 -65 -8 t-72.5 -6t-69.5 -3t-57 -1q-133 0 -217.5 26.5t-129.5 86t-54 154.5zM598 1255l174 306q6 10 13.5 17t23.5 3l113 -31q27 -6 8 -28l-244 -301q-18 -20 -37 -13l-43 19q-20 8 -8 28z" />
<glyph unicode="&#xfb;" horiz-adv-x="1089" d="M134 247q-9 95 11 234l78 570q4 16 10.5 21t22.5 5h90q12 0 19.5 -5t3.5 -21l-78 -557q-16 -104 -14 -177t30.5 -118t90 -65.5t165.5 -20.5q23 0 84.5 3t132.5 17l129 918q4 16 9.5 21t21.5 5h92q14 0 20.5 -5t4.5 -21l-129 -918q-10 -59 -40 -92t-89 -43q-29 -4 -65 -8 t-72.5 -6t-69.5 -3t-57 -1q-133 0 -217.5 26.5t-129.5 86t-54 154.5zM360 1239q-12 12 2 27l283 258q43 37 78 37q25 0 40 -7.5t32 -29.5l202 -256q16 -23 -4 -39l-32 -27q-16 -10 -35 2l-224 203l-282 -205q-18 -12 -33 4z" />
<glyph unicode="&#xfc;" horiz-adv-x="1089" d="M134 247q-9 95 11 234l78 570q4 16 10.5 21t22.5 5h90q12 0 19.5 -5t3.5 -21l-78 -557q-16 -104 -14 -177t30.5 -118t90 -65.5t165.5 -20.5q23 0 84.5 3t132.5 17l129 918q4 16 9.5 21t21.5 5h92q14 0 20.5 -5t4.5 -21l-129 -918q-10 -59 -40 -92t-89 -43q-29 -4 -65 -8 t-72.5 -6t-69.5 -3t-57 -1q-133 0 -217.5 26.5t-129.5 86t-54 154.5zM430 1360q0 41 34 73.5t75 32.5q35 0 58.5 -24.5t23.5 -59.5q-2 -43 -37 -75.5t-74 -32.5q-35 0 -58.5 25.5t-21.5 60.5zM778 1360q0 41 34 73.5t75 32.5q35 0 59.5 -24.5t24.5 -59.5q-2 -41 -37 -74.5 t-72 -33.5t-61.5 25.5t-22.5 60.5z" />
<glyph unicode="&#xfd;" horiz-adv-x="952" d="M-126 -376q-3 5 3 22l29 71q6 16 13 17.5t24 -4.5q113 -37 182 -37q61 0 108.5 35.5t96.5 142.5l65 137h-24q-23 0 -39.5 8.5t-24.5 51.5l-178 987q-4 20 14 20h101q14 0 18 -4t6 -14q6 -35 19.5 -107.5t27 -154.5t26.5 -155t19 -105q4 -29 13.5 -85.5t21 -120 t20.5 -120.5t15 -84h10q12 27 40 85t57.5 122.5t56.5 122t41 86.5l242 514q8 20 30 20h105q23 0 12 -20l-580 -1239q-55 -117 -125.5 -185.5t-191.5 -68.5q-53 0 -113.5 13t-113.5 34q-23 10 -26 15zM518 1255l174 306q6 10 13.5 17t23.5 3l113 -31q27 -6 8 -28l-244 -301 q-18 -20 -37 -13l-43 19q-20 8 -8 28z" />
<glyph unicode="&#xfe;" horiz-adv-x="1095" d="M23 -391l260 1864q4 16 10 20t22 4h93q12 0 18 -4t4 -20l-57 -408q72 18 142.5 25.5t135.5 7.5q104 0 177 -31t119 -88t67.5 -138t21.5 -179q0 -147 -36.5 -272.5t-106.5 -216.5t-171 -143.5t-230 -52.5q-59 0 -127 8.5t-140 30.5l-59 -407q-2 -16 -8 -20.5t-21 -4.5h-90 q-16 0 -22.5 4t-1.5 21zM244 150q78 -29 138 -36.5t107 -7.5q80 0 152 32t126 97.5t86 169t32 244.5q0 88 -19.5 149.5t-55.5 99.5t-86.5 54.5t-113.5 16.5q-53 0 -126.5 -11.5t-129.5 -33.5q-8 -51 -18 -122t-21.5 -149t-21.5 -157.5t-20.5 -148t-17.5 -121t-11 -76.5z" />
<glyph unicode="&#xff;" horiz-adv-x="952" d="M-126 -376q-3 5 3 22l29 71q6 16 13 17.5t24 -4.5q113 -37 182 -37q61 0 108.5 35.5t96.5 142.5l65 137h-24q-23 0 -39.5 8.5t-24.5 51.5l-178 987q-4 20 14 20h101q14 0 18 -4t6 -14q6 -35 19.5 -107.5t27 -154.5t26.5 -155t19 -105q4 -29 13.5 -85.5t21 -120 t20.5 -120.5t15 -84h10q12 27 40 85t57.5 122.5t56.5 122t41 86.5l242 514q8 20 30 20h105q23 0 12 -20l-580 -1239q-55 -117 -125.5 -185.5t-191.5 -68.5q-53 0 -113.5 13t-113.5 34q-23 10 -26 15zM342 1360q0 41 34 73.5t75 32.5q35 0 58 -24.5t23 -59.5 q-2 -43 -36.5 -75.5t-73.5 -32.5q-35 0 -58.5 25.5t-21.5 60.5zM690 1360q0 41 34 73.5t75 32.5q35 0 59.5 -24.5t24.5 -59.5q-2 -41 -37 -74.5t-72 -33.5t-61.5 25.5t-22.5 60.5z" />
<glyph unicode="&#x152;" horiz-adv-x="1777" d="M143 516q0 223 50.5 398.5t141.5 295t217 183t279 63.5q162 0 279 -63q35 20 81 31.5t105 11.5h496q23 0 27 -9.5t2 -25.5l-11 -76q-4 -20 -10 -26.5t-26 -6.5h-476q-90 0 -137 -43t-59 -131l-39 -287h616q33 0 27 -36l-10 -66q-4 -16 -10.5 -25.5t-24.5 -9.5h-617 l-55 -377q-10 -74 20.5 -123t129.5 -49h540q23 0 28 -8t1 -26l-10 -76q-4 -16 -10.5 -25.5t-26.5 -9.5h-545q-63 0 -109 11.5t-79 31.5q-127 -66 -289 -66q-242 0 -369 142.5t-127 396.5zM297 537q0 -92 19.5 -169t62.5 -132.5t109.5 -86t162.5 -30.5q55 0 104.5 11t92.5 32 q-14 37 -14 84t6 92l106 758q6 51 20.5 97t37.5 85q-74 35 -183 35q-143 0 -242.5 -66.5t-162 -176t-91 -249t-28.5 -284.5z" />
<glyph unicode="&#x153;" horiz-adv-x="1779" d="M102 391q0 172 42 304t115 221.5t170 135.5t208 46q135 0 228 -60.5t130 -181.5q70 121 176.5 181.5t241.5 60.5q98 0 165 -27t105.5 -68.5t55 -91t16.5 -94.5q0 -180 -126 -261t-390 -81q-47 0 -101.5 3t-107.5 11q-8 -47 -8 -94q0 -152 64.5 -219t203.5 -67 q68 0 129.5 17t110.5 40q20 8 31 -8l34 -72q12 -25 -14 -35q-74 -41 -157.5 -57.5t-161.5 -16.5q-141 0 -229.5 56.5t-121.5 179.5q-68 -117 -174 -176.5t-241 -59.5q-190 0 -292 105.5t-102 308.5zM248 406q0 -135 61.5 -219.5t202.5 -84.5q109 0 181.5 54.5t115.5 138.5 t61.5 184.5t18.5 192.5q0 63 -13.5 117.5t-44 94.5t-80.5 63.5t-124 23.5q-100 0 -172 -49.5t-118 -129t-67.5 -181t-21.5 -205.5zM1044 604q47 -6 98.5 -9t92.5 -3q211 0 299 50t88 161q0 33 -11.5 62.5t-37 53t-67.5 38t-101 14.5q-150 0 -241 -95.5t-120 -271.5z" />
<glyph unicode="&#x178;" horiz-adv-x="1085" d="M170 1415q-4 6 1 13.5t15 7.5h115q14 0 19.5 -4.5t11.5 -18.5l143 -379l111 -307h8l201 317l243 369q16 23 39 23h123q10 0 11 -8.5t-3 -12.5l-557 -833l-78 -555q-2 -16 -7 -21.5t-21 -5.5h-96q-14 0 -20.5 5t-4.5 22l78 553zM432 1647q0 41 34 73.5t75 32.5 q35 0 58.5 -24.5t23.5 -59.5q-2 -43 -37 -75.5t-74 -32.5q-35 0 -58.5 25.5t-21.5 60.5zM780 1647q0 41 34 73.5t75 32.5q35 0 59.5 -24.5t24.5 -59.5q-2 -41 -37 -74.5t-72 -33.5t-61.5 25.5t-22.5 60.5z" />
<glyph unicode="&#x2c6;" horiz-adv-x="1112" d="M358 1231q-12 12 2 26l283 259q43 37 78 36q25 0 40 -7t32 -29l202 -256q16 -23 -4 -39l-33 -27q-16 -10 -34 2l-224 203l-282 -205q-18 -12 -33 4z" />
<glyph unicode="&#x2dc;" horiz-adv-x="1107" d="M358.5 1320q-2.5 5 6.5 17q43 61 98 95t121 34q33 0 63.5 -11t59 -25.5t56.5 -25.5t56 -11q68 0 111 61q10 12 14 14t14 -2l66 -24q23 -8 14 -27q-41 -78 -93 -110.5t-120 -32.5q-35 0 -66.5 12t-62 25.5t-60.5 26t-61 12.5q-61 0 -116 -62q-8 -10 -14.5 -14t-16.5 4 l-57 33q-10 6 -12.5 11z" />
<glyph unicode="&#x2000;" horiz-adv-x="921" />
<glyph unicode="&#x2001;" horiz-adv-x="1843" />
<glyph unicode="&#x2002;" horiz-adv-x="921" />
<glyph unicode="&#x2003;" horiz-adv-x="1843" />
<glyph unicode="&#x2004;" horiz-adv-x="614" />
<glyph unicode="&#x2005;" horiz-adv-x="460" />
<glyph unicode="&#x2006;" horiz-adv-x="307" />
<glyph unicode="&#x2007;" horiz-adv-x="307" />
<glyph unicode="&#x2008;" horiz-adv-x="230" />
<glyph unicode="&#x2009;" horiz-adv-x="368" />
<glyph unicode="&#x200a;" horiz-adv-x="102" />
<glyph unicode="&#x2010;" horiz-adv-x="643" d="M80 522l18 119q2 14 7.5 20.5t21.5 6.5h457q23 0 20 -27l-18 -119q-2 -16 -6.5 -21t-20.5 -5h-457q-29 0 -22 26z" />
<glyph unicode="&#x2011;" horiz-adv-x="643" d="M80 522l18 119q2 14 7.5 20.5t21.5 6.5h457q23 0 20 -27l-18 -119q-2 -16 -6.5 -21t-20.5 -5h-457q-29 0 -22 26z" />
<glyph unicode="&#x2012;" horiz-adv-x="643" d="M80 522l18 119q2 14 7.5 20.5t21.5 6.5h457q23 0 20 -27l-18 -119q-2 -16 -6.5 -21t-20.5 -5h-457q-29 0 -22 26z" />
<glyph unicode="&#x2013;" horiz-adv-x="993" d="M84 567l10 82q4 14 9.5 21.5t21.5 7.5h827q27 0 21 -29l-10 -82q-4 -16 -9.5 -22t-21.5 -6h-828q-16 0 -19 6t-1 22z" />
<glyph unicode="&#x2014;" horiz-adv-x="1986" d="M80 567l10 82q4 14 9 21.5t22 7.5h1831q16 0 19 -7t1 -22l-12 -82q-2 -29 -29 -28h-1831q-16 0 -19 6t-1 22z" />
<glyph unicode="&#x2018;" horiz-adv-x="548" d="M215 1010l178 417q6 16 13.5 23.5t25.5 7.5h49q33 0 27 -24l-92 -422q-4 -14 -12.5 -24.5t-24.5 -10.5h-141q-18 0 -22.5 10t-0.5 23z" />
<glyph unicode="&#x2019;" horiz-adv-x="548" d="M246 1004l92 421q4 14 12 24.5t25 10.5h139q18 0 23.5 -11t1.5 -22l-179 -417q-6 -16 -13 -24.5t-25 -8.5h-52q-31 0 -24 27z" />
<glyph unicode="&#x201a;" horiz-adv-x="442" d="M31 -225q23 106 46 209.5t46 210.5q4 12 12 22t25 10h137q29 0 29 -20q0 -2 -1 -3t-1 -3v-6q-45 -104 -89.5 -207t-87.5 -207q-8 -16 -15 -23.5t-23 -7.5h-50q-29 0 -28 17v8z" />
<glyph unicode="&#x201c;" horiz-adv-x="786" d="M215 1012l178 418q6 16 13.5 23t25.5 7h49q33 0 27 -24l-92 -422q-4 -14 -12.5 -24.5t-24.5 -10.5h-141q-18 0 -22.5 10t-0.5 23zM516 1012l176 418q6 16 13.5 23t25.5 7h51q31 0 25 -24l-92 -422q-4 -14 -12.5 -24.5t-24.5 -10.5h-139q-18 0 -22.5 10t-0.5 23z" />
<glyph unicode="&#x201d;" horiz-adv-x="786" d="M215 1006l92 421q4 14 11.5 24.5t23.5 10.5h141q18 0 23.5 -11t1.5 -21l-178 -418q-6 -16 -14.5 -24.5t-24.5 -8.5h-51q-33 0 -25 27zM514 1006l92 421q4 14 12.5 24.5t24.5 10.5h139q18 0 23.5 -11t-0.5 -21l-176 -418q-6 -16 -13.5 -24.5t-25.5 -8.5h-51q-31 0 -25 27z " />
<glyph unicode="&#x201e;" horiz-adv-x="735" d="M31 -225l92 420q4 14 12 24t25 10h137q18 0 24.5 -10t2.5 -22l-177 -418q-8 -16 -14 -23.5t-22 -7.5h-50q-37 0 -30 27zM328 -225l92 420q4 14 12 24t25 10h137q18 0 24.5 -10t2.5 -22l-177 -418q-8 -16 -14 -23.5t-22 -7.5h-50q-37 0 -30 27z" />
<glyph unicode="&#x2022;" horiz-adv-x="759" d="M199 569q0 53 20.5 100.5t54 83t80 56t95.5 20.5q84 0 136 -54t52 -136q0 -53 -21.5 -99t-56.5 -81t-80 -55.5t-92 -20.5q-84 0 -136 53t-52 133z" />
<glyph unicode="&#x2026;" horiz-adv-x="1380" d="M74 82q0 59 42 100t95 41q47 0 76.5 -28.5t29.5 -75.5q0 -59 -42 -101.5t-97 -42.5q-47 0 -75.5 30t-28.5 77zM530 82q0 59 42.5 100t95.5 41q47 0 75.5 -28.5t28.5 -75.5q0 -59 -41 -101.5t-98 -42.5q-45 0 -74 30t-29 77zM987 82q0 59 42 100t99 41q47 0 75 -28.5 t28 -75.5q0 -59 -41 -101.5t-96 -42.5q-47 0 -77 30t-30 77z" />
<glyph unicode="&#x202f;" horiz-adv-x="368" />
<glyph unicode="&#x2039;" horiz-adv-x="626" d="M145 500q2 23 15.5 41t23.5 32l246 330q10 14 21.5 22.5t40.5 8.5h83q16 0 19.5 -10.5t-6.5 -24.5l-297 -403l190 -392q12 -33 -24 -32h-86q-27 0 -35 7t-17 23l-159 328q-6 16 -12.5 34.5t-2.5 35.5z" />
<glyph unicode="&#x203a;" horiz-adv-x="628" d="M70 104l299 396l-179 399q-6 14 0.5 24.5t22.5 10.5h86q25 0 33 -8t16 -23l152 -328q6 -16 13 -34.5t3 -40.5q-4 -14 -14 -34t-19 -34l-254 -330q-8 -16 -20 -23t-37 -7h-90q-35 0 -12 32z" />
<glyph unicode="&#x205f;" horiz-adv-x="460" />
<glyph unicode="&#x20ac;" d="M98 557l8 47q2 29 29 29h801q16 0 20.5 -6t1.5 -23l-8 -47q-2 -29 -28 -29h-551q-8 -94 7 -169.5t58 -130t116 -83t177 -28.5q66 0 141.5 18.5t143.5 46.5q18 8 23 2t10 -16l28 -70q8 -20 2 -27.5t-16 -13.5q-41 -23 -89 -38t-97.5 -24t-98.5 -13.5t-90 -4.5 q-115 0 -206 34t-152.5 102.5t-91 172t-17.5 242.5h-98q-16 0 -19.5 6.5t-3.5 22.5zM133 793l6 47q2 29 31 28h98q59 270 214 401.5t370 131.5q72 0 160 -15.5t166 -58.5q6 -4 12 -10t-2 -25l-35 -73q-10 -23 -35 -13q-57 25 -121.5 40.5t-138.5 15.5q-176 0 -282.5 -104.5 t-151.5 -289.5h545q16 0 20 -6t2 -22l-8 -47q-2 -16 -7 -22.5t-22 -6.5h-800q-16 0 -19.5 6t-1.5 23z" />
<glyph unicode="&#x2122;" horiz-adv-x="1665" d="M123 1364v49q0 23 18 23h594q18 0 19 -23v-49q0 -23 -19 -23h-250v-690q0 -20 -22 -20h-60q-23 0 -22 20v690h-240q-18 0 -18 23zM838 649v733q0 23 9 38.5t40 15.5h35q27 0 43 -10.5t26 -39.5q43 -98 84 -195t82 -196q18 -41 34 -76.5t32 -76.5q2 0 4 1t4 1l65 155 q41 98 82 193.5t84 193.5q10 29 25.5 39.5t42.5 10.5h39q29 0 39 -15.5t10 -38.5v-733q0 -12 -6 -15t-17 -3h-59q-12 0 -16 3t-4 15v619h-5l-34 -80q-10 -25 -20.5 -50.5t-20.5 -47.5q-35 -80 -69 -160t-69 -160q-10 -25 -19 -34t-34 -9h-35q-27 0 -36 9t-19 34l-131 301 q-20 51 -40.5 100.5t-41.5 96.5h-4v-619q0 -12 -5 -15t-18 -3h-57q-12 0 -16 3t-4 15z" />
<glyph unicode="&#xe000;" horiz-adv-x="1075" d="M0 0v1075h1075v-1075h-1075z" />
</font>
</defs>
</svg>
